<svg xmlns="http://www.w3.org/2000/svg" viewBox="0 0 708.66 187.574">
  <defs>
    <style>
      .cls-1 {
        fill: #004890;
      }

      .cls-2 {
        fill: #00478e;
      }

      .cls-3 {
        fill: #fff;
      }

      .cls-4 {
        fill: #00488e;
      }
    </style>
  </defs>
  <g id="Symbol_2_1" data-name="Symbol 2 – 1" transform="translate(-313.867 -239.271)">
    <path id="path7763" class="cls-1" d="M992.983,187.332h-12v12.6h10.666a.641.641,0,0,1,.725.725v2.115c0,.544-.242.786-.725.786H980.987v16.467a.641.641,0,0,1-.725.725h-3.021a.641.641,0,0,1-.725-.725v-35.8c0-.514.242-.786.725-.786H993.98c.483,0,.725.151.725.393a.678.678,0,0,1-.03.3.767.767,0,0,1-.06.212l-.786,2.387a.834.834,0,0,1-.846.6" transform="translate(-649.505 132.25)"/>
    <path id="path7765" class="cls-1" d="M1002.47,196.034a12.81,12.81,0,0,1,.7,2.387l.6-.725a14.182,14.182,0,0,1,3.293-3.051,5.289,5.289,0,0,1,2.84-.725,5.363,5.363,0,0,1,2.327.514c.272.121.393.241.393.392a1.612,1.612,0,0,1-.091.393l-1.329,2.931a.291.291,0,0,1-.3.212.508.508,0,0,1-.151-.06,5.551,5.551,0,0,0-1.692-.332c-1.269,0-3.052,1.39-5.348,4.139v18.038a.543.543,0,0,1-.6.6h-2.84a.552.552,0,0,1-.635-.6V203.83a33.727,33.727,0,0,0-.121-3.747,10.4,10.4,0,0,0-1.209-3.565,1.529,1.529,0,0,1-.242-.574.544.544,0,0,1,.332-.453l2.236-1.451a1.272,1.272,0,0,1,.453-.121c.423,0,.876.725,1.39,2.115" transform="translate(-649.505 132.25)"/>
    <path id="path7767" class="cls-1" d="M1035.314,208.6h-15.561c.272,6.134,2.689,9.185,7.191,9.185a12.434,12.434,0,0,0,6.255-1.964.879.879,0,0,1,.483-.181.364.364,0,0,1,.393.3l1,2.085a3.084,3.084,0,0,0,.121.392c0,.786-1.269,1.511-3.777,2.175a21.583,21.583,0,0,1-4.865.816,10.125,10.125,0,0,1-8.218-3.686c-2.024-2.478-3.052-5.831-3.052-10.031s.967-7.524,2.9-10.031a9.42,9.42,0,0,1,7.826-3.747,8.948,8.948,0,0,1,7.282,3.2c1.752,2.115,2.629,5.076,2.629,8.853v1.632C1035.918,208.271,1035.706,208.6,1035.314,208.6Zm-9.608-11.421c-3.716,0-5.68,2.689-5.922,8.067h11.723q-.136-8.067-5.8-8.067" transform="translate(-649.505 132.25)"/>
    <path id="path7769" class="cls-1" d="M1043.079,197.968h-4.532c-.272,0-.393-.212-.393-.6v-2.145c0-.393.121-.6.393-.6h8.218c.272,0,.423.211.423.6v24.927a.542.542,0,0,1-.6.6h-2.9c-.423,0-.6-.121-.6-.393Zm1.662-16.286a3.127,3.127,0,0,1,2.357,1,3.4,3.4,0,0,1,0,4.683,3.311,3.311,0,0,1-2.357.937,3.344,3.344,0,0,1-2.327-.937,3.319,3.319,0,0,1,0-4.683,3.156,3.156,0,0,1,2.327-1" transform="translate(-649.505 132.25)"/>
    <path id="path7771" class="cls-1" d="M1074.472,208.6h-15.561c.3,6.134,2.689,9.185,7.191,9.185a12.346,12.346,0,0,0,6.255-1.964.965.965,0,0,1,.514-.181.407.407,0,0,1,.393.3l1,2.085c.06.3.121.423.121.392q0,1.178-3.807,2.175a21.328,21.328,0,0,1-4.865.816,10.066,10.066,0,0,1-8.188-3.686c-2.055-2.478-3.082-5.831-3.082-10.031s.967-7.524,2.9-10.031a9.42,9.42,0,0,1,7.826-3.747,9.009,9.009,0,0,1,7.312,3.2c1.752,2.115,2.629,5.076,2.629,8.853v1.632Q1075.107,208.6,1074.472,208.6Zm-9.578-11.421c-3.747,0-5.711,2.689-5.922,8.067H1070.7q-.181-8.067-5.8-8.067" transform="translate(-649.505 132.25)"/>
    <path id="path7773" class="cls-1" d="M1095.351,184.22c0-.514.242-.786.725-.786h3.021c.483,0,.725.272.725.786v26.408c0,2.6.514,4.472,1.541,5.559,1.057,1.088,2.81,1.662,5.288,1.662,4.925,0,7.4-2.417,7.4-7.221V184.22c0-.514.242-.786.725-.786h2.81c.484,0,.725.272.725.786v26.5c0,3.746-1.178,6.526-3.5,8.369-2.024,1.571-4.774,2.327-8.249,2.327-7.493,0-11.21-3.565-11.21-10.7v-26.5" transform="translate(-649.505 132.25)"/>
    <path id="path7775" class="cls-1" d="M1128.315,193.919c.695,0,1.239,1.239,1.692,3.656,2.991-2.417,5.892-3.656,8.7-3.656,2.387,0,4.049.6,5.016,1.843.967,1.209,1.45,3.294,1.45,6.285v18.1a.543.543,0,0,1-.6.6h-2.84a.552.552,0,0,1-.635-.6V201.956q0-4.532-3.626-4.532c-2.266,0-4.623,1.118-7.07,3.414v19.307a.552.552,0,0,1-.635.6h-2.9a.543.543,0,0,1-.6-.6V201.322a11.983,11.983,0,0,0-1-5.2,1.069,1.069,0,0,1-.121-.272.447.447,0,0,1,.272-.393l2.478-1.42a.987.987,0,0,1,.423-.121" transform="translate(-649.505 132.25)"/>
    <path id="path7777" class="cls-1" d="M1154.995,197.968h-4.532c-.272,0-.393-.212-.393-.6v-2.145c0-.393.121-.6.393-.6h8.188c.3,0,.453.211.453.6v24.927a.543.543,0,0,1-.6.6h-2.9c-.423,0-.6-.121-.6-.393Zm1.662-16.286a3.017,3.017,0,0,1,2.327,1,3.279,3.279,0,0,1-2.327,5.62,3.344,3.344,0,0,1-2.327-.937,3.319,3.319,0,0,1,0-4.683,3.156,3.156,0,0,1,2.327-1" transform="translate(-649.505 132.25)"/>
    <path id="path7779" class="cls-1" d="M1174.695,214.8c.03.212.121.544.242,1.027.181-.664.514-1.813,1.027-3.414l6.5-17.917c.091-.3.242-.453.393-.453a.841.841,0,0,1,.332.061l2.84.785c.332.061.514.212.514.423-.06.212-.06.272-.06.241l-.06.121-10,25.169c-.061.212-.272.3-.6.3h-2.3c-.181,0-.332-.181-.423-.513l-9.276-25.32c-.06-.03-.06-.061,0-.091a.065.065,0,0,1-.06-.06c0-.242.181-.363.574-.454l3.052-.6a.448.448,0,0,1,.272-.061q.272,0,.453.453l5.862,17.857a10.056,10.056,0,0,1,.332,1.178,7.889,7.889,0,0,1,.393,1.269" transform="translate(-649.505 132.25)"/>
    <path id="path7781" class="cls-1" d="M1209.5,208.6h-15.591c.3,6.134,2.719,9.185,7.221,9.185a12.247,12.247,0,0,0,6.224-1.964,1.056,1.056,0,0,1,.514-.181.384.384,0,0,1,.393.3l1,2.085a3.063,3.063,0,0,0,.121.392q0,1.178-3.807,2.175a21.128,21.128,0,0,1-4.834.816,10.084,10.084,0,0,1-8.218-3.686c-2.055-2.478-3.052-5.831-3.052-10.031s.967-7.524,2.9-10.031a9.4,9.4,0,0,1,7.8-3.747,8.969,8.969,0,0,1,7.312,3.2c1.752,2.115,2.629,5.076,2.629,8.853v1.632C1210.107,208.271,1209.9,208.6,1209.5,208.6Zm-9.608-11.421c-3.716,0-5.68,2.689-5.922,8.067H1205.7q-.181-8.067-5.8-8.067" transform="translate(-649.505 132.25)"/>
    <path id="path7783" class="cls-1" d="M1219.836,196.034a12.818,12.818,0,0,1,.7,2.387l.6-.725a14.182,14.182,0,0,1,3.293-3.051,5.289,5.289,0,0,1,2.84-.725,5.6,5.6,0,0,1,2.357.514c.242.121.393.241.393.392a2.381,2.381,0,0,1-.121.393l-1.329,2.931a.29.29,0,0,1-.3.212.507.507,0,0,1-.151-.06,5.552,5.552,0,0,0-1.692-.332c-1.269,0-3.052,1.39-5.348,4.139v18.038a.543.543,0,0,1-.6.6h-2.84a.552.552,0,0,1-.635-.6V203.83c0-1.873-.03-3.112-.091-3.747a11.146,11.146,0,0,0-1.239-3.565,1.528,1.528,0,0,1-.242-.574q0-.272.363-.453l2.236-1.451a.988.988,0,0,1,.423-.121c.423,0,.876.725,1.39,2.115" transform="translate(-649.505 132.25)"/>
    <path id="path7785" class="cls-1" d="M1231.862,218.7c.03-.031.393-.816,1.057-2.387a.417.417,0,0,1,.393-.272,1.765,1.765,0,0,1,.393.121,14.854,14.854,0,0,0,6.557,1.843,4.465,4.465,0,0,0,3.142-1.088,3.822,3.822,0,0,0,1.148-2.87q0-2.448-3.444-4.079a33.485,33.485,0,0,1-6.013-3.354,6.394,6.394,0,0,1-2.508-5.137,7.017,7.017,0,0,1,2.327-5.408,8.465,8.465,0,0,1,5.952-2.146,13.97,13.97,0,0,1,6.345,1.571c.423.212.6.453.6.665a.836.836,0,0,1-.091.392l-.967,1.994a.538.538,0,0,1-.483.393,4.289,4.289,0,0,1-.393-.181,13.127,13.127,0,0,0-5.076-1.39c-2.75.03-4.14,1.239-4.14,3.626,0,1.662,1,2.991,2.961,3.958l3.777,1.843a11.9,11.9,0,0,1,4.23,2.991,6.264,6.264,0,0,1,1.178,3.928,7.148,7.148,0,0,1-2.357,5.59,9.044,9.044,0,0,1-6.285,2.115,15.385,15.385,0,0,1-7.977-2.055.586.586,0,0,1-.332-.484V218.7" transform="translate(-649.505 132.25)"/>
    <path id="path7787" class="cls-1" d="M1256.426,197.968h-4.532c-.242,0-.393-.212-.393-.6v-2.145c0-.393.151-.6.393-.6h8.219c.3,0,.423.211.423.6v24.927a.53.53,0,0,1-.6.6h-2.9c-.393,0-.6-.121-.6-.393Zm1.662-16.286a3.127,3.127,0,0,1,2.357,1,3.4,3.4,0,0,1,0,4.683,3.311,3.311,0,0,1-2.357.937,3.272,3.272,0,0,1-2.3-.937,3.248,3.248,0,0,1,0-4.683,3.09,3.09,0,0,1,2.3-1" transform="translate(-649.505 132.25)"/>
    <path id="path7789" class="cls-1" d="M1266.155,194.614h3.837v-7.463c0-.332.181-.544.574-.664l2.991-.846a.065.065,0,0,0,.06-.06h.06c.272,0,.393.212.393.6v8.43h8.158c.3,0,.483.121.483.392a1.971,1.971,0,0,1-.06.332l-.6,2.115a.686.686,0,0,1-.725.514h-7.252v15.349a6.384,6.384,0,0,0,.665,3.535,3.046,3.046,0,0,0,2.629.936,12.872,12.872,0,0,0,4.865-1.42.915.915,0,0,1,.363-.091c.151,0,.272.091.363.332l.725,2.417v.121q0,.272-.453.544a14.538,14.538,0,0,1-6.587,1.631c-2.417,0-4.14-.6-5.136-1.813s-1.511-3.263-1.511-6.134V197.968h-3.837c-.453,0-.695-.212-.695-.6v-2.145c0-.393.242-.6.695-.6" transform="translate(-649.505 132.25)"/>
    <path id="path7791" class="cls-1" d="M1286.671,213.891c0-6.194,4.774-9.4,14.352-9.548V202.56a5.145,5.145,0,0,0-1.148-3.747,5.464,5.464,0,0,0-3.9-1.118,16,16,0,0,0-6.406,1.632,2.579,2.579,0,0,1-.393.091.416.416,0,0,1-.393-.272L1288,196.94a1.041,1.041,0,0,1-.091-.393c0-.392.635-.815,1.934-1.3a18.289,18.289,0,0,1,6.708-1.329q8.521,0,8.521,7.7V211.9a14.777,14.777,0,0,0,1.45,7.191.329.329,0,0,1,.121.272.348.348,0,0,1-.181.332l-2.387,1.481a1.134,1.134,0,0,1-.453.151q-.952,0-1.994-3.445a11,11,0,0,1-7.765,3.445,6.944,6.944,0,0,1-5.227-1.994A7.554,7.554,0,0,1,1286.671,213.891Zm4.8-24.535a2.836,2.836,0,0,1-2.055-.876,2.807,2.807,0,0,1-.846-2.055,2.941,2.941,0,0,1,2.961-2.992,2.82,2.82,0,0,1,2.024.877,2.921,2.921,0,0,1,.876,2.115,2.992,2.992,0,0,1-2.961,2.931Zm9.548,25.411v-7.01c-6.768.03-10.182,1.964-10.182,5.771a4.571,4.571,0,0,0,1.088,3.142,3.6,3.6,0,0,0,2.84,1.208C1296.612,217.879,1298.7,216.852,1301.023,214.767Zm1.148-25.411a2.739,2.739,0,0,1-2.055-.876,2.931,2.931,0,0,1-.846-2.055,3.019,3.019,0,0,1,.846-2.115,2.739,2.739,0,0,1,2.055-.877,2.854,2.854,0,0,1,2.085.877,2.993,2.993,0,0,1,.816,2.115,2.92,2.92,0,0,1-.816,2.085,2.826,2.826,0,0,1-2.085.846" transform="translate(-649.505 132.25)"/>
    <path id="path7793" class="cls-1" d="M1310.813,194.614h3.837v-7.463a.669.669,0,0,1,.544-.664l3.021-.846a.065.065,0,0,0,.06-.06h.06c.272,0,.393.212.393.6v8.43h8.158c.332,0,.484.121.484.392a.772.772,0,0,1-.06.332l-.6,2.115a.686.686,0,0,1-.725.514h-7.252v15.349a6.383,6.383,0,0,0,.665,3.535,3.045,3.045,0,0,0,2.629.936,12.871,12.871,0,0,0,4.865-1.42.916.916,0,0,1,.363-.091c.151,0,.272.091.332.332l.755,2.417v.121q0,.272-.453.544a14.538,14.538,0,0,1-6.587,1.631c-2.417,0-4.139-.6-5.136-1.813s-1.511-3.263-1.511-6.134V197.968h-3.837c-.453,0-.665-.212-.665-.6v-2.145c0-.393.212-.6.665-.6" transform="translate(-649.505 132.25)"/>
    <path id="path7795" class="cls-1" d="M1560.66,192.378c0,4.2-1.753,7.161-5.288,8.883a9.119,9.119,0,0,1,3.837,1.9,9.469,9.469,0,0,1,2.9,7.312,10.553,10.553,0,0,1-2.085,6.617,8.731,8.731,0,0,1-5.62,3.324,35.077,35.077,0,0,1-5.56.332H1540.9c-.483,0-.695-.242-.695-.725V184.28c0-.513.212-.786.695-.786h8.944c3.988,0,6.738.755,8.309,2.236A8.791,8.791,0,0,1,1560.66,192.378Zm-11-5.257h-5.016v12.871h3.958c4.8,0,7.191-2.356,7.191-7.07,0-2.115-.453-3.626-1.39-4.5S1551.9,187.121,1549.662,187.121Zm.06,16.467h-5.076v13.536h5.378c4.865,0,7.282-2.266,7.282-6.8,0-4.5-2.508-6.738-7.584-6.738" transform="translate(-649.505 132.25)"/>
    <path id="path7797" class="cls-1" d="M1587.914,208.634h-15.561c.3,6.1,2.689,9.155,7.191,9.155a12.261,12.261,0,0,0,6.255-1.964.9.9,0,0,1,.514-.151.416.416,0,0,1,.393.272l1,2.085c.061.3.121.453.121.392q0,1.178-3.807,2.175a21.329,21.329,0,0,1-4.865.816,10.065,10.065,0,0,1-8.188-3.686c-2.055-2.478-3.082-5.8-3.082-10s.967-7.523,2.9-10.031a9.434,9.434,0,0,1,7.826-3.716,8.988,8.988,0,0,1,7.312,3.172c1.753,2.115,2.629,5.076,2.629,8.853v1.6C1588.548,208.3,1588.337,208.634,1587.914,208.634Zm-9.578-11.421c-3.716,0-5.711,2.689-5.922,8.067h11.723q-.181-8.067-5.8-8.067" transform="translate(-649.505 132.25)"/>
    <path id="path7799" class="cls-1" d="M1598.278,196.064a13.474,13.474,0,0,1,.665,2.387l.6-.725a15.189,15.189,0,0,1,3.293-3.021,5.4,5.4,0,0,1,2.87-.725,5.349,5.349,0,0,1,2.327.483c.272.121.393.242.393.393a1.036,1.036,0,0,1-.121.393l-1.329,2.931a.241.241,0,0,1-.272.212,1.215,1.215,0,0,1-.181-.06,5.374,5.374,0,0,0-1.662-.332c-1.269,0-3.052,1.39-5.348,4.139v18.008a.552.552,0,0,1-.635.6h-2.84a.542.542,0,0,1-.6-.6V203.86a33.7,33.7,0,0,0-.121-3.747,11.077,11.077,0,0,0-1.208-3.565,1.526,1.526,0,0,1-.242-.574.544.544,0,0,1,.332-.453l2.236-1.451a1.218,1.218,0,0,1,.453-.09c.393,0,.876.695,1.39,2.085" transform="translate(-649.505 132.25)"/>
    <path id="path7801" class="cls-2" d="M1612.72,213.438V182.77a.728.728,0,0,1,.6-.695l2.81-.664c.03,0,.06,0,.091-.06h.242c.242,0,.393.212.393.634v32.451c0,2.357.786,3.505,2.327,3.505a5.418,5.418,0,0,0,2.417-.665,1.984,1.984,0,0,1,.393-.091c.181,0,.3.091.393.332l.665,2.024a1.515,1.515,0,0,1,.091.423c0,.181-.121.3-.363.484a11.321,11.321,0,0,1-4.26.876c-2.206,0-3.716-.544-4.532-1.662-.846-1.118-1.269-3.2-1.269-6.224" transform="translate(-649.505 132.25)"/>
    <path id="path7803" class="cls-2" d="M1627.828,198H1623.3c-.272,0-.393-.212-.393-.6v-2.115c0-.423.121-.635.393-.635h8.218c.272,0,.423.212.423.635v24.867a.53.53,0,0,1-.6.6h-2.9c-.423,0-.6-.121-.6-.393Zm1.662-16.256a3.3,3.3,0,0,1,3.293,3.293,3.251,3.251,0,0,1-3.293,3.324,3.3,3.3,0,0,1-2.326-.967,3.214,3.214,0,0,1-.967-2.357,3.354,3.354,0,0,1,3.293-3.293" transform="translate(-649.505 132.25)"/>
    <path id="path7805" class="cls-2" d="M1643.328,193.98c.695,0,1.239,1.209,1.692,3.626q4.532-3.625,8.7-3.626c2.387,0,4.049.6,5.016,1.813s1.45,3.294,1.45,6.255v18.1a.543.543,0,0,1-.6.6h-2.84a.552.552,0,0,1-.635-.6V201.987q0-4.532-3.626-4.532c-2.266,0-4.623,1.118-7.07,3.414v19.277a.552.552,0,0,1-.635.6h-2.9a.543.543,0,0,1-.6-.6V201.352a11.983,11.983,0,0,0-1-5.2,2.426,2.426,0,0,1-.121-.272c0-.151.091-.272.272-.393l2.478-1.42a1.192,1.192,0,0,1,.423-.09" transform="translate(-649.505 132.25)"/>
    <path id="path7807" class="cls-1" d="M963.372,242.354h708.66V231.929H963.372Z" transform="translate(-649.505 132.25)"/>
    <path id="path7809" class="cls-3" d="M1526.759,200.808a93.787,93.787,0,1,1-93.787-93.787,93.779,93.779,0,0,1,93.787,93.787" transform="translate(-649.505 132.25)"/>
    <path id="path7811" class="cls-4" d="M1499.294,134.486q-27.465-27.465-66.322-27.465-38.841,0-66.322,27.465-27.465,27.466-27.465,66.322T1366.65,267.1q26.378,26.423,63.24,27.466c.484,0,.937,0,1.42.03h1.662q38.841,0,66.322-27.5,27.465-27.42,27.465-66.291Q1526.759,161.967,1499.294,134.486Zm-1.209,131.4q-26.967,27.013-65.113,27.012c-.544,0-1.088-.03-1.632-.03-.453,0-.937,0-1.39-.03q-36.213-1.043-62.092-26.952-26.967-26.967-26.952-65.083,0-38.117,26.952-65.113,26.967-26.967,65.113-26.982,38.161,0,65.113,26.982,26.967,26.967,26.982,65.113Q1525.067,238.924,1498.085,265.891Zm-.816-129.38q-26.65-26.6-64.3-26.62-37.663,0-64.3,26.62-26.6,26.65-26.619,64.3,0,37.663,26.619,64.267,25.562,25.608,61.306,26.619c.453,0,.906,0,1.39.03h1.6q37.663,0,64.3-26.65,26.6-26.6,26.619-64.267Q1523.889,163.145,1497.269,136.511Zm-.514,128.051q-26.423,26.423-63.784,26.438h-1.6c-.453-.031-.906-.031-1.36-.031q-35.442-1.042-60.823-26.408-26.423-26.378-26.408-63.753,0-37.346,26.408-63.784,26.423-26.422,63.784-26.408,37.346,0,63.784,26.408,26.423,26.423,26.408,63.784Q1523.209,238.154,1496.755,264.562Zm-10.907-116.63q-21.891-21.936-52.876-21.906-30.955,0-52.876,21.906-21.936,21.891-21.906,52.876,0,30.955,21.906,52.876,21.029,21.03,50.429,21.876c.363.03.755.03,1.118.03h1.329q31,0,52.876-21.906,21.936-21.891,21.906-52.876Q1507.754,169.853,1485.848,147.932Zm-.393,105.329q-21.755,21.755-52.483,21.755h-1.329c-.363,0-.755-.03-1.118-.03q-29.142-.861-50.036-21.725-21.709-21.709-21.724-52.453,0-30.729,21.724-52.483,21.755-21.71,52.483-21.725t52.483,21.725q21.709,21.754,21.724,52.483Q1507.18,231.537,1485.455,253.261ZM1435.6,140.952l2.145-2.81-3.505.544-1.269-3.445-1.329,3.535-3.445-.574,2.266,2.9-2.236,2.81,3.565-.574,1.209,3.354,1.329-3.444,3.445.574Zm-1.541,1.874L1433,145.484l-.937-2.6-2.78.423,1.752-2.176-1.752-2.236,2.659.423L1433,136.6l.967,2.659,2.719-.423-1.662,2.206,1.692,2.206Zm-54.266,80.915,1-3.414-3.082,1.782-2.417-2.749.03,3.777-3.414.695,3.142,1.9-1.088,3.414,3.142-1.813,2.357,2.689V226.34l3.414-.7Zm-.786,2.3v2.87l-1.813-2.085-2.447,1.39.846-2.659-2.447-1.45,2.659-.574V220.6l1.873,2.145,2.387-1.39-.786,2.659,2.387,1.481Zm115.451-2.206-3.414-.755-.06-3.656-2.357,2.72-3.052-1.813,1.027,3.535-3.052,1.722,3.5.876-.121,3.626,2.508-2.719,2.931,1.873-.967-3.535Zm-2.78,4.472-2.3-1.481-1.964,2.115.121-2.81-2.719-.665,2.357-1.359-.876-2.719,2.448,1.39,1.752-2.145.151,2.87,2.629.544-2.357,1.481Zm-36.107-103.909a.432.432,0,0,1,.635-.151m6.859,4.835c-.212-.151-.363-.242-.423-.3a1.77,1.77,0,0,1-.423-.755c-.151-1.511-.363-3.656-.635-6.375a20.2,20.2,0,0,0-.574-4.321.869.869,0,0,0-.665-.3c-.332-.06-.483.03-.544.242q-.136.317-3.263,4.169c-1.058,1.3-2.115,2.6-3.142,3.837a9.549,9.549,0,0,1-1.571.514c-.242.212-.212.423.06.664a7.636,7.636,0,0,0,1.632.635h0c.091.03.211.06.3.091a7.944,7.944,0,0,0,1.48.241.42.42,0,0,0,.3-.332.722.722,0,0,0-.423-.574.029.029,0,0,0-.03-.03,1.209,1.209,0,0,1-.332-.363.663.663,0,0,1-.121-.392c0-.031.03-.091.03-.121a2.17,2.17,0,0,1,.846-1.209l.635-.151a24.422,24.422,0,0,1,3.777,1.239,4.4,4.4,0,0,1,.091,2.085.507.507,0,0,1-.363.3,2.369,2.369,0,0,0-.725.03c-.393.121-.423.363-.121.755a12.806,12.806,0,0,0,3.928,1.209.543.543,0,0,0,.453-.272A.486.486,0,0,0,1463.066,129.078ZM1456.6,123.1l2.719-3.293a.159.159,0,0,1,.272.06l.272,4.291Zm-9.941-9.457a1.214,1.214,0,0,1,.483.121.62.62,0,0,1,.211.423,4.924,4.924,0,0,1-.091,2.508.537.537,0,0,1-.635.151,5.945,5.945,0,0,1-.453-1.148,1.138,1.138,0,0,0-.393-.725,2.844,2.844,0,0,0-1.6-.453c-.272-.03-.423.181-.484.574-.151,1.088-.332,2.175-.453,3.263-.03.393-.091.786-.151,1.209-.151,1.3-.272,2.6-.393,3.928l.816.544a.489.489,0,0,1,.121.3c0,.121-.03.181-.151.212a4.241,4.241,0,0,1-1.843.151,8.928,8.928,0,0,1-2.024-.423c-.272-.3-.3-.514-.091-.7l.755-.3a.59.59,0,0,0,.272-.453l1.088-8.1c-.06-.332-.212-.514-.423-.544a3.321,3.321,0,0,0-1.178-.121,1.843,1.843,0,0,0-1.36,1.269c-.423.514-.755.574-1.027.181a5.667,5.667,0,0,1,.6-2.568.48.48,0,0,1,.3-.332.389.389,0,0,1,.363.03c1.934.332,3.233.544,3.867.635a33.532,33.532,0,0,0,3.868.363m6.134,2.628a.786.786,0,0,0-.363.333,80.039,80.039,0,0,0-1.722,8.067,2.265,2.265,0,0,0-.03.332.384.384,0,0,0,.211.272q.634.317.544.635c-.06.212-.242.363-.635.423a12.422,12.422,0,0,1-3.354-.846.5.5,0,0,1-.151-.423c.03-.181.151-.272.363-.332l.574-.181a.533.533,0,0,0,.272-.393,57.869,57.869,0,0,0,1.813-8.128.693.693,0,0,0-.121-.423l-.514-.423c-.3-.3-.181-.544.272-.725a14.894,14.894,0,0,1,3.444.725.508.508,0,0,1,.3.454c0,.151-.091.272-.3.362a3.877,3.877,0,0,1-.6.272m-19.942-2.024a.721.721,0,0,0-.212-.393l-.574-.3c-.332-.241-.272-.513.151-.785a15.1,15.1,0,0,1,3.5.06c.242.09.363.212.393.393a.347.347,0,0,1-.211.392,6.074,6.074,0,0,1-.574.393.526.526,0,0,0-.272.423,77.723,77.723,0,0,0-.181,8.219c.03.212.03.3.06.332a.294.294,0,0,0,.242.212c.453.151.665.332.665.544s-.181.392-.544.513a11.307,11.307,0,0,1-3.475-.181.577.577,0,0,1-.212-.363.416.416,0,0,1,.272-.392l.544-.3a.635.635,0,0,0,.212-.423,58.7,58.7,0,0,0,.212-8.339m-4.442.03a2.7,2.7,0,0,0-1.632-.151c-.272.06-.393.272-.393.664.121,2.87.363,5.68.635,8.43l.906.393c.091.121.181.181.181.3a.2.2,0,0,1-.091.242,4.871,4.871,0,0,1-1.783.483,9.542,9.542,0,0,1-2.085-.031c-.332-.241-.393-.453-.212-.664l.665-.454a.685.685,0,0,0,.181-.483l-.483-8.188c-.121-.3-.3-.454-.484-.423a3.712,3.712,0,0,0-1.209.09,1.849,1.849,0,0,0-1.088,1.511c-.3.574-.635.695-.967.363a5.207,5.207,0,0,1,.06-2.629.627.627,0,0,1,.272-.393.474.474,0,0,1,.363-.03c1.934-.061,3.263-.091,3.928-.121,1.45-.09,2.75-.212,3.868-.362a1.218,1.218,0,0,1,.483,0,.71.71,0,0,1,.3.393,4.959,4.959,0,0,1,.393,2.478.571.571,0,0,1-.6.272,5.628,5.628,0,0,1-.635-1.058c-.212-.362-.393-.574-.574-.634m-12.448.3c.363-.392.695-.423,1.027-.121a6.4,6.4,0,0,1,1.148,1.994c.03.363-.091.574-.272.6-.242.06-.544-.091-.967-.453a3.007,3.007,0,0,0-1.36-.725c-1.48-.151-2.417.242-2.75,1.178q-.5,1.768,2.266,2.357l2.266.483a2.742,2.742,0,0,1,2.206,1.843,2.858,2.858,0,0,1-.242,2.779,3.448,3.448,0,0,1-1.692,1.481,7.943,7.943,0,0,1-3.686.6,2.331,2.331,0,0,1-1.541-.514,4.366,4.366,0,0,1-.6-1.027.709.709,0,0,1-.06-.241,4.33,4.33,0,0,1-.181-1.118c.242-.423.544-.453.876-.181l1.027.967a2.263,2.263,0,0,0,1.42.785,2.558,2.558,0,0,0,2.236-.513c.6-.755.816-1.36.574-1.813a2.745,2.745,0,0,0-.755-.816,2.435,2.435,0,0,0-1.118-.483l-2.931-.695a3.05,3.05,0,0,1-1.692-1.118,2.786,2.786,0,0,1-.272-2.931,3.8,3.8,0,0,1,3.323-2.175,11.8,11.8,0,0,0,1.753-.151m-18.854,6.466a.42.42,0,0,1,0-.574,15.378,15.378,0,0,1,3.324-1.39c.514-.031.695.181.6.6a.948.948,0,0,0-.6,1,31.67,31.67,0,0,0,1.42,4.14c.03.091.061.151.091.241q.589,1.36,1.269,2.629a1.469,1.469,0,0,0,.906.635,3.377,3.377,0,0,0,2.176-.091,3.6,3.6,0,0,0,1.692-1.269,3.167,3.167,0,0,0,.121-1.9c0-.06-.03-.09-.03-.151,0-.031-.03-.06-.03-.091a55.492,55.492,0,0,0-2.387-6.1.614.614,0,0,0-.363-.363,1.892,1.892,0,0,0-.725-.03.618.618,0,0,1-.272-.151c-.091-.091-.091-.242,0-.423a5.683,5.683,0,0,1,2.78-1.118c.363.031.514.151.483.363-.03.181-.06.272-.06.3-.03.03-.181.151-.423.332a.608.608,0,0,0-.181.755l2.266,5.8c.06.212.121.454.181.635,0,.091.03.151.03.241a3.591,3.591,0,0,1-.03,1.39,4.542,4.542,0,0,1-.3.876,2.449,2.449,0,0,1-.665.816,6.748,6.748,0,0,1-1.269.967,5.776,5.776,0,0,1-1.541.514,5.328,5.328,0,0,1-2.6-.03,4.079,4.079,0,0,1-2.085-1.994l-2.447-6.073c-.121-.272-.242-.393-.423-.393a1.466,1.466,0,0,1-.906-.091m-.453,11.149a.541.541,0,0,0-.03-.483,54.909,54.909,0,0,0-3.747-7.4.559.559,0,0,0-.363-.211h-.665c-.423-.061-.514-.3-.242-.755a14.631,14.631,0,0,1,3.112-1.662.623.623,0,0,1,.544.151.456.456,0,0,1,0,.483c-.091.151-.181.363-.332.6a.554.554,0,0,0-.03.483,77.3,77.3,0,0,0,3.747,7.312c.121.151.181.242.212.242a.323.323,0,0,0,.332.09c.423-.121.725-.06.816.121.121.211.03.453-.242.725a13,13,0,0,1-3.112,1.541.592.592,0,0,1-.393-.242.48.48,0,0,1,.061-.483l.332-.513m3.475,20.425a2.386,2.386,0,0,0,.483-1.39,4.269,4.269,0,0,1-.121,2.508,2.4,2.4,0,0,0,.03,1.027,9.551,9.551,0,0,1,.212,1.511c0,.574.03,1.359.06,2.326a.267.267,0,0,0,.061.242,2.957,2.957,0,0,0,.211.272c.151.211.121.362-.151.453a1.747,1.747,0,0,1-.665-1.209,2.983,2.983,0,0,1-.03-.635,2.847,2.847,0,0,0-.091-.6,1.963,1.963,0,0,0-1.088-1.36,7.84,7.84,0,0,0,.091-.846,3.936,3.936,0,0,1,.181-.967,5.191,5.191,0,0,1,.363-.635,6.437,6.437,0,0,1,.453-.695m-3.2,4.049a2.953,2.953,0,0,0,.484-1.239,3.776,3.776,0,0,0-.272-1.873,3.032,3.032,0,0,1,.906,2.779,1.117,1.117,0,0,0,.363,1.42,3.7,3.7,0,0,1,.846.846,1.225,1.225,0,0,1,.212.967l-.091,1.058a.694.694,0,0,1-.393-.3,1.593,1.593,0,0,1-.06-.574.66.66,0,0,0-.151-.574c-.151-.121-.272-.121-.453.03a.827.827,0,0,0-.423.574,1.273,1.273,0,0,0,.242.664l.423.635c0,.664-.06,1-.151,1.087a7.266,7.266,0,0,1-.907-1.722,1.944,1.944,0,0,1-.03-1.118,1.621,1.621,0,0,0,0-.544,1.45,1.45,0,0,0-.3-.453,1.957,1.957,0,0,1-.423-.876,1.136,1.136,0,0,1,.181-.786m5.711-.906a5.414,5.414,0,0,1-.121-2.417,2.556,2.556,0,0,1,.816-1.813,5.305,5.305,0,0,0,.453,4.109,1.8,1.8,0,0,1,.3.907.913.913,0,0,1-.211.725,4.1,4.1,0,0,0-1.027,2.72,4.324,4.324,0,0,1-.483-.544,1.981,1.981,0,0,1,.242-.846l.3-.6a3.109,3.109,0,0,0,0-1.058q-.045-.271-.272-1.178m3.173.091a5.848,5.848,0,0,1-.151.665,1.239,1.239,0,0,0,.212,1.118c.423.544.121,1.42-1,2.689-.151-.091-.181-.3-.121-.574a.936.936,0,0,0,.393-1.208,2.058,2.058,0,0,1-.06-1.783,6.432,6.432,0,0,1,.363-.755,5.269,5.269,0,0,0,.393-.876,1.953,1.953,0,0,1-.03.725m-2.115,7.433a.029.029,0,0,0,.03.03.877.877,0,0,1,.06.967c0,.031-.03.06-.03.091a1.1,1.1,0,0,0,.03.7,2.373,2.373,0,0,0,.906,1.087,2.872,2.872,0,0,1-.876.393,1.517,1.517,0,0,1-.393.06,3.4,3.4,0,0,1-.332-1.39,1.765,1.765,0,0,1,.181-.786c.212-.392.3-.574.332-.635a2.287,2.287,0,0,0,.03-.453,1.47,1.47,0,0,0-.121-.332l.181.272m-4.14-.3a.515.515,0,0,0-.03.212,1.511,1.511,0,0,0,.091.423c0,.06.06.151.181.332a2.771,2.771,0,0,1,.212.423,5.261,5.261,0,0,1,.091,2.236,1.324,1.324,0,0,1-.484-.181,3.5,3.5,0,0,0-.423-.241,1.185,1.185,0,0,1-.121-.544,1.3,1.3,0,0,1,.181-.514.814.814,0,0,0,0-.664,4.177,4.177,0,0,1-.151-.544,1.11,1.11,0,0,1,.272-1,2.793,2.793,0,0,0,.363-.483,2.845,2.845,0,0,0-.181.544m2.357-1.42c-.121-.363-.212-.6-.272-.786a1.8,1.8,0,0,1,.3-1.873,2.727,2.727,0,0,0,.514,2.417,1.28,1.28,0,0,1,.212.816,1.807,1.807,0,0,1-.212.544,3.3,3.3,0,0,0-.3.513c-.06.06-.06.151-.06.272v.091c.03.151.03.272-.03.332a.981.981,0,0,0-.121-.392c-.091-.212-.151-.3-.151-.332a1.211,1.211,0,0,1,.121-.937.837.837,0,0,0,0-.664m-.393,2.961a3.16,3.16,0,0,0,.151-.363,2.238,2.238,0,0,1-.06.363v.03a1.55,1.55,0,0,0-.03.514,3.2,3.2,0,0,0,.725,1.722,5.791,5.791,0,0,1-1.239-.06,2.154,2.154,0,0,1,.03-1.511c.181-.272.3-.514.423-.695m82.728-13.929v6.043m-2.115,57.227h0m-27.737,17.313v-.846m-51.124-8.49a.979.979,0,0,1,0-.725h-5.952a1.406,1.406,0,0,1,.03.755,1.494,1.494,0,0,0,.06.846h.635a1.229,1.229,0,0,1,.3-.665c.212-.182.332-.3.393-.363a1.979,1.979,0,0,1,.332.031,1.824,1.824,0,0,1,.514.121l.091,5.559a1.067,1.067,0,0,1-1,.907v.272h2.87a3.142,3.142,0,0,1,.061-.453,1.246,1.246,0,0,0,.121-.453,1.225,1.225,0,0,1-.725-.514v-5.227a2.4,2.4,0,0,1,1.329,0,.728.728,0,0,1,.483.695l.544.091A3.538,3.538,0,0,0,1403.271,221.838Zm-5.046-8.249,1.873,6.013,1.088.272.181-.272-.544-.514,2.266-5.589a2.107,2.107,0,0,1,1.329-.7l.091-.3-2.357-.03.3.423-1.722,4.2-1.329-4.472h-2.085v.514A.762.762,0,0,1,1398.225,213.589Zm41.092,37.346a4.265,4.265,0,0,0-1.088-.332,8.683,8.683,0,0,1-1.329-.363,1.253,1.253,0,0,1-.514-.785,1.089,1.089,0,0,1,.151-.816.829.829,0,0,1,.695-.423,1.432,1.432,0,0,1,1.027.393l-.181.635h.906l.544-1.783-1,.091-.151.212a7.425,7.425,0,0,0-1.813-.212,1.616,1.616,0,0,0-1.178.6,1.856,1.856,0,0,0-.423,1.45c.03.6.514,1.058,1.39,1.36a3.432,3.432,0,0,1,1.813,1.178,1.057,1.057,0,0,1,.091,1.239,1.974,1.974,0,0,1-2.145-.091l-.091-.544-.635-.453-.634,2.327,1.541.181c-.091-.121-.091-.181,0-.272,2.085.423,3.324.06,3.656-1.058a3.82,3.82,0,0,0,.03-1.752A1.319,1.319,0,0,0,1439.317,250.934Zm-4.623-5.892a1.878,1.878,0,0,0,.574.906,1.677,1.677,0,0,0,1.027.453,3.154,3.154,0,0,0,1.088-.06,2.975,2.975,0,0,0,1.39-.635.831.831,0,0,0,.212-.272c.06-.06.06-.121.091-.121v.725l.816.091-.091-3.142-1.178.181a1.483,1.483,0,0,1-.091.574,3.488,3.488,0,0,0-.181.514,1.848,1.848,0,0,0,.272-.031c.03.031.06.031.03.091v.091a1.221,1.221,0,0,1-.483.816c-.151.151-.423.151-.816.121a1.394,1.394,0,0,1-.816-.454,2.618,2.618,0,0,1-.514-1.209.7.7,0,0,1,.695-.755,4.012,4.012,0,0,1,1.541.212l-.121-1.329a.97.97,0,0,1-.423.453,5.719,5.719,0,0,1-.876-.03.993.993,0,0,1-.544-1.33c.272-.815.665-1.269,1.118-1.3a1.124,1.124,0,0,1,.786.333,1.319,1.319,0,0,1,.483.695l-.423.091c-.06.091,0,.241.091.483a1.09,1.09,0,0,1,.151.6l1.118.272.363-2.779h-.544l-.544.453a2.462,2.462,0,0,0-2.508-.755,2.132,2.132,0,0,0-1.541,1.541l-.091,1a2.225,2.225,0,0,0,.6,1.028A2.72,2.72,0,0,0,1434.694,245.043Zm-66.443-75.175a122.147,122.147,0,0,0,3.777,13.264q-6.526,6.889-10.756,20.455A72.871,72.871,0,0,1,1368.252,169.868Zm5.65,13.264c-1.178-3.535-2.145-6.557-2.84-9.064a77.091,77.091,0,0,1-1.934-8.883,82.2,82.2,0,0,0-4.8,10.213,57.906,57.906,0,0,0-3.173,11.784,92.979,92.979,0,0,0-1.178,12.811,67.715,67.715,0,0,0,1.209,14.262,51.86,51.86,0,0,1,3.807-16.286A62.026,62.026,0,0,1,1373.9,183.133Zm33.841,40.79a.419.419,0,0,1-.272.453,2.924,2.924,0,0,1-.906.061c-.151,0-.272-.121-.363-.332a4.482,4.482,0,0,1,.393-1.964c.484-.242.816-.151.967.272A3.214,3.214,0,0,1,1407.742,223.922Zm1.632,3.2a25.594,25.594,0,0,1-1-4.442.911.911,0,0,1,1.088-1l.332-.816-5.922.181a.774.774,0,0,0,.211.574.623.623,0,0,0,.514.121.383.383,0,0,1,.393.212.808.808,0,0,1,.06.544l-1.178,4.472a1.2,1.2,0,0,1-.786,1l.151.362,1.9-.091.544-2.055c.151-.967.906-1.359,2.236-1.088l1,3.415,1.239-.182.151-.6A.761.761,0,0,1,1409.374,227.125Zm-5.106-12.026a2.334,2.334,0,0,0,.6,1,2.778,2.778,0,0,0-.665,2.508,2.031,2.031,0,0,0,.574.906,1.746,1.746,0,0,0,1.027.423,3.241,3.241,0,0,0,1.088-.03,3.32,3.32,0,0,0,1.39-.665,1.962,1.962,0,0,0,.242-.272.38.38,0,0,1,.06-.091v.7l.816.091-.091-3.142-1.178.181a1.486,1.486,0,0,1-.091.574,3.491,3.491,0,0,0-.181.513h.272c.03,0,.06.031.03.061v.121a1.3,1.3,0,0,1-.483.816,1.027,1.027,0,0,1-.786.09,1.125,1.125,0,0,1-.816-.453,2.116,2.116,0,0,1-.514-1.208c-.03-.423.181-.665.634-.755a4.763,4.763,0,0,1,1.571.212l-.121-1.329a.765.765,0,0,1-.423.453,3.311,3.311,0,0,1-.876-.03.97.97,0,0,1-.544-1.3c.272-.846.665-1.269,1.118-1.3a.939.939,0,0,1,.786.3,1.275,1.275,0,0,1,.484.7l-.423.121c-.061.091,0,.241.091.453a.91.91,0,0,1,.151.6l1.118.272.363-2.78h-.544l-.544.454a2.542,2.542,0,0,0-2.508-.755,2.066,2.066,0,0,0-1,.574,2.322,2.322,0,0,0-.544,1Zm40.156,35.11-.544-1.088-.544,1.088h-1.088l.544.876-.453.906h1l.544,1,.544-1,1.057.091-.544-1,.544-.876Zm-18.915-.967a2.446,2.446,0,0,0-.091-.876,1.421,1.421,0,0,1,0-.725H1419.5a1.382,1.382,0,0,1,0,.725,1.343,1.343,0,0,0,.091.876h.635a1.127,1.127,0,0,1,.3-.7c.181-.151.332-.272.393-.332a1.978,1.978,0,0,1,.332.031,4.743,4.743,0,0,1,.483.09l.091,5.59a.96.96,0,0,1-.967.876v.272h2.87a.724.724,0,0,1,.06-.423,2.587,2.587,0,0,0,.121-.453,1.139,1.139,0,0,1-.725-.514v-5.227a2.836,2.836,0,0,1,1.329-.03.706.706,0,0,1,.453.725Zm26.5-25.169c0,.242-.091.392-.272.423a2.206,2.206,0,0,1-.906.091.5.5,0,0,1-.363-.332,4.023,4.023,0,0,1,.393-1.964c.483-.241.786-.151.967.242A4.5,4.5,0,0,1,1452.007,224.074Zm1.511,3.112a25.726,25.726,0,0,1-.967-4.442c.03-.695.363-1.027,1.027-1l.332-.816-5.439.181v.332a.3.3,0,0,0,.091.242.515.515,0,0,0,.453.121.394.394,0,0,1,.363.211,1.068,1.068,0,0,1,.03.544l-1.088,4.472c-.03.091-.03.151-.06.241l-.3-.03a.449.449,0,0,1-.363-.363l.091-4.684a.817.817,0,0,1,.544-.816v-.454l-2.266.091-.06.544a.638.638,0,0,1,.544.544v4.774a.79.79,0,0,1-.755.846l.393.574,1.511-.182.121.272,1.783-.091.514-2.055c.151-.967.846-1.33,2.115-1.088l.937,3.414,1.178-.181.151-.6A.7.7,0,0,1,1453.518,227.186Zm47.5-6.073a45.042,45.042,0,0,1-3.475,11.754,63.384,63.384,0,0,1-5.348,9.608,35.8,35.8,0,0,1-8.762,8.158,48.92,48.92,0,0,1-12.962,6.405,46.11,46.11,0,0,1-14.05,2.236c1.269-.967,2.538-1.934,3.747-2.961a45.77,45.77,0,0,0,8.974-1.541A38.424,38.424,0,0,0,1479.322,250a39.759,39.759,0,0,0,9.608-8.491,43.644,43.644,0,0,0,6.557-10.937,39.859,39.859,0,0,0,2.961-12.026,42.08,42.08,0,0,0-.634-12.025,37.266,37.266,0,0,0-3.988-11.24,59.64,59.64,0,0,0-7.675-10.757l3.626-.121a36.626,36.626,0,0,1,7.4,10.605,46.251,46.251,0,0,1,3.777,12.9A45.011,45.011,0,0,1,1501.016,221.112Zm-48.706,38.283c-.332.211-.695.423-1.027.634-.211.121-.393.242-.574.362h-35.472c-1.632-1-3.233-2.024-4.774-3.112q-.952-.635-1.813-1.269h6.315a10.347,10.347,0,0,0,0,1.39v.242c.03.513.061.906.091,1.239a1.229,1.229,0,0,0,.453.755,5.321,5.321,0,0,0,2.387.182,38.288,38.288,0,0,0,4.321-.393c1.511-.241,3.2-.544,5.046-.876q.861-.181,2.085-.453.861-.136,1.178-.182a.318.318,0,0,1,.3.121,1.15,1.15,0,0,1,.151.242c.211.242.846.363,1.9.393h.06c1.058-.03,1.692-.151,1.9-.393.06-.121.121-.211.212-.242a.778.778,0,0,1,.272-.121,4.411,4.411,0,0,1,1.178.061c.635.091,1.662.272,3.082.483,1.42.242,2.931.484,4.472.725a33.744,33.744,0,0,0,3.565.423c1.148.03,1.873.06,2.145.06s.484-.211.665-.6a5.376,5.376,0,0,0,.242-1.209q.045-.589,0-1.9h6.526Q1454.847,257.763,1452.309,259.395Zm17.162,2.81a73.6,73.6,0,0,1-28.4,9.427,49.413,49.413,0,0,0,5.983-7.07,35.926,35.926,0,0,0,3.747-1.843A53.692,53.692,0,0,0,1469.471,262.2Zm-36.56,3.565a42.306,42.306,0,0,1-16.135-4.442h32.209A41.248,41.248,0,0,1,1432.911,265.77Zm.635,4.623.06-2.508c1.3-.121,2.568-.272,3.777-.484A12.294,12.294,0,0,1,1433.546,270.393Zm-.03,2.085.03-1.3a11.444,11.444,0,0,0,4.623-3.928c.695-.121,1.36-.272,2.024-.423A21.935,21.935,0,0,1,1433.516,272.478Zm-4.865-5.076c1.178.211,2.417.363,3.656.484l.03,2.538A9.635,9.635,0,0,1,1428.651,267.4Zm-2.84-.544c.574.121,1.178.242,1.783.363h.06a10.683,10.683,0,0,0,4.714,3.867v1.39A23,23,0,0,1,1425.811,266.858Zm-1.148,4.714a71.881,71.881,0,0,1-27.586-9.367,61.745,61.745,0,0,0,18.219.635c1.148.635,2.357,1.209,3.565,1.752Zm-28.885-14.654a48.044,48.044,0,0,1-12.962-6.406,35.437,35.437,0,0,1-8.793-8.158,60.943,60.943,0,0,1-5.318-9.608,43.98,43.98,0,0,1-3.5-11.754,45.013,45.013,0,0,1,.061-13.2,46.243,46.243,0,0,1,3.777-12.9,36.623,36.623,0,0,1,7.4-10.605l3.626.121a59.636,59.636,0,0,0-7.675,10.757,39.7,39.7,0,0,0-4.019,11.24,43.2,43.2,0,0,0-.6,12.025,40.264,40.264,0,0,0,2.961,12.056,44.013,44.013,0,0,0,6.557,10.908,39.77,39.77,0,0,0,9.608,8.49,38.152,38.152,0,0,0,10.213,4.774,50.835,50.835,0,0,0,8.672,1.631c.242.212.514.423.755.635,1.027.785,2.055,1.571,3.112,2.326A47.477,47.477,0,0,1,1395.777,256.917Zm-23.87-91.642,3.052,1.692a120.882,120.882,0,0,0,5.106,15.954l-3.233-.212A95.124,95.124,0,0,1,1371.908,165.276Zm9.79-4.5v3.143a30.206,30.206,0,0,0-6.073,1.873l-3.354-1.934A63.988,63.988,0,0,1,1381.7,160.773Zm-4.683,6.285a14.757,14.757,0,0,1,4.683-1.42l-.091,16.256A65.778,65.778,0,0,1,1377.014,167.058Zm5.378,51.547a51.7,51.7,0,0,0,3.142,10.635,68.746,68.746,0,0,0,11.844,18.915,69.725,69.725,0,0,0,6.5,6.526,50,50,0,0,1-6.345-1.45,41.675,41.675,0,0,1-8.853-4.109,36.56,36.56,0,0,1-9.578-8.007,40.968,40.968,0,0,1-6.436-9.971,42.688,42.688,0,0,1-3.112-22.48,41.544,41.544,0,0,1,4.2-12.63,33.212,33.212,0,0,1,7.856-10.606l-.091,23.6A51.325,51.325,0,0,0,1382.392,218.6Zm-7.131-60.491a62.035,62.035,0,0,1,6.5-7.644l-.03,6.225A28.76,28.76,0,0,0,1375.261,158.114Zm23.537,31.514a4.886,4.886,0,0,1-2.115-.3,9.822,9.822,0,0,1,1.148-.212s.121.06.363.151A6.214,6.214,0,0,1,1398.8,189.628Zm.937-1.843h-1.148l-.544-.363.725-.09Zm-1.571-13.445h-.816l-.483-.363C1397.59,173.977,1398.013,174.1,1398.164,174.34Zm3.475,10.424h.453l.544.544A3.2,3.2,0,0,1,1401.639,184.764Zm-1.722,1.088-.272-.181.725-.091.725.332Zm2.085,18.19a1.172,1.172,0,0,0-.333-.272c-.453-.272-.665-.544-.665-.846-.06-1.481-.091-2.6-.06-3.324.121-.453.332-.665.544-.6.242.061.574.393,1.058.967.393.453.514,1.541.3,3.2-.453.453-.514.816-.212,1a.937.937,0,0,1,.393.876.713.713,0,0,1-.544.453,1.01,1.01,0,0,1-.786-.06,1.078,1.078,0,0,1-.574-.725c-.06-.212.212-.332.876-.3A.275.275,0,0,0,1402,204.041Zm2.417-18.462-.725-.725.574.121Zm-1.964-15.5c.06.091.242.121.514.121a3.882,3.882,0,0,1,.967-.06c.423.06.544.3.3.695a4.286,4.286,0,0,0-.181,1.964l-1.088.906c-.03.06.06.242.3.453.3.272.423.483.423.635,0,.091-.061.182-.242.3a.662.662,0,0,0-.3.423,1.491,1.491,0,0,0,.181.574,1.5,1.5,0,0,1,.181.574v3.414c-.091.031-.151.272-.181.695a7.315,7.315,0,0,0,0,1.632,6.652,6.652,0,0,1-.121,1.45,3.607,3.607,0,0,0-.06,1.088,2.223,2.223,0,0,0-1.994-.3,2.32,2.32,0,0,1,.544,1.208c-.272-.363-.544-.453-.816-.363L1400.4,175.4l.423-1.873a.69.69,0,0,1-.363-.574,1.15,1.15,0,0,1,.181-.574c.212-.362.3-.544.3-.544a.389.389,0,0,0-.03-.453l-1-.181c-.061-.3-.03-.514.121-.635a.9.9,0,0,1,.544-.212,4.087,4.087,0,0,0,.544-.121c.121-.06.151-.212.06-.393l-1.873-.453c-.212-.181-.332-.332-.332-.484a.57.57,0,0,1,.06-.363,1.772,1.772,0,0,0,.212-.423,1.044,1.044,0,0,0-.03-.6c.03-.09.121-.121.272-.09a1.59,1.59,0,0,1,.453.181,2.049,2.049,0,0,0,1.178.181c.091.483.181.755.272.786q.181.045.725-.635a2.015,2.015,0,0,1,1.45-.241c.121,0,.212.03.272.03a2.041,2.041,0,0,0,.363.031.769.769,0,0,0,.483-.151,1.541,1.541,0,0,1,.635-.393.368.368,0,0,0,.3-.182.506.506,0,0,0,.03.363c.03.06.06.181.121.3a.5.5,0,0,1-.181.6,7.246,7.246,0,0,1-1.692.967,7.323,7.323,0,0,1-1.45.392C1402.394,169.868,1402.394,169.989,1402.455,170.08Zm5.227,24.081c-.181-.332-.3-.544-.393-.695a3.825,3.825,0,0,0-.453-.635c.332.181.544.181.695.03a.8.8,0,0,1-.423-.635c.06.031.242.151.574.332a3.159,3.159,0,0,1,.937.816.969.969,0,0,0-.121-.725,8.09,8.09,0,0,0,1.118.695q.272.136.816.363a14.882,14.882,0,0,1,2.689,1.813,3.926,3.926,0,0,0,2.417.423,1.011,1.011,0,0,1-.574.755,2.461,2.461,0,0,1-1.027.091,4.249,4.249,0,0,0-.846.091c-.3.09-.544.181-.695.211a3.291,3.291,0,0,1-1.873.06,3.142,3.142,0,0,1-1.148-.574c-.061-.061-.363-.363-.907-.876a.836.836,0,0,0,.635-.151A3.692,3.692,0,0,1,1407.682,194.161Zm33.176-21.966a4.031,4.031,0,0,1-.906-.181,1.109,1.109,0,0,1,.544-.574A1.337,1.337,0,0,0,1440.858,172.194Zm2.538.423a1.805,1.805,0,0,1-.786-.151q0-.362.453-.453A.736.736,0,0,0,1443.4,172.618Zm-5.016-9.427-.725.967-.272-.241.091-.816h.635Zm3.324.121-.574.695-.483-.876Zm2.629.665-.574.332-.272-.6Zm-60.611-13.2h98.531l.272,56.683h-19.217a1.176,1.176,0,0,1-.393-.725c-.03-.272-.061-.665-.091-1.209q-.045-1-.091-1.36a3.694,3.694,0,0,0-.3-1.208c.03-.212.091-.272.151-.242a1.616,1.616,0,0,1,.332.423,7.06,7.06,0,0,0-.242-1.752,4.616,4.616,0,0,1-.181-1.42c.242-.06.423.091.514.544a41.905,41.905,0,0,0,1.118-9.7,3.319,3.319,0,0,1,.514,1.3,11.632,11.632,0,0,0,.03-4.472,5.689,5.689,0,0,1,.242-2.447,10.765,10.765,0,0,0-.272-5.076,2.08,2.08,0,0,0,1.269,1,24.548,24.548,0,0,1-1.964-5.167,2.2,2.2,0,0,1,.091-1.269,6.982,6.982,0,0,0,.393-1.3,2.555,2.555,0,0,1,.393-1.058l.121.725c.121-.031.212-.151.3-.423a7.324,7.324,0,0,0,.151-.967,4.49,4.49,0,0,1,.514-1.813,2.206,2.206,0,0,1,.272,1.058,12.139,12.139,0,0,0-.272-5.922l-.453-3.777a1.668,1.668,0,0,0,.846-1.39v-1.269a1.333,1.333,0,0,1,.574.635,7.206,7.206,0,0,1-.272-1.511,1.822,1.822,0,0,0-.332-1.058,4.362,4.362,0,0,0-4.411-1.42,2.706,2.706,0,0,0-.635-1.874q-.045-.227.363-.181a1.734,1.734,0,0,0-1.511-.816,3.77,3.77,0,0,1-.635-.151c-.272-.091-.483-.182-.634-.212a2.083,2.083,0,0,0-1.329-.091,2.971,2.971,0,0,0-2.357,1.964c-2.659-.544-4.472-.635-5.439-.242a.449.449,0,0,1,.363-.363,3.09,3.09,0,0,0-2.085.967c-2.538.363-5.076.816-7.584,1.36a21.477,21.477,0,0,1-4.17.03,4.589,4.589,0,0,0-.453.786,1.03,1.03,0,0,0,.091.937,3.316,3.316,0,0,1,.332,2.931l-.514,1.269a2.046,2.046,0,0,0-.242.785,1.008,1.008,0,0,0,.06.514,5.094,5.094,0,0,0,.423.574.86.86,0,0,1,.816.513l.937.816a3.737,3.737,0,0,1,1.39-1.692.3.3,0,0,1,.453.09,6.605,6.605,0,0,0,1.662,1.692,2.869,2.869,0,0,1,.937-1.239c.091-.06.151-.091.242-.06a.307.307,0,0,1,.212.121,2.226,2.226,0,0,0,.665.6c.332.242.544.332.6.3a2.019,2.019,0,0,1,.634-.3.921.921,0,0,1,.484-.03c.06.03.06.121.03.332a2.355,2.355,0,0,0,.544,1.3,1.11,1.11,0,0,1,1.36-.121c1.209.967,1.511,1.541.937,1.692-3.384-.151-5.378-.241-5.922-.3-1.843-.212-3.5-.483-4.925-.785a10.76,10.76,0,0,1-3.233-1.632,9.222,9.222,0,0,1-1.6-1.934,1.549,1.549,0,0,0-.906-.665,1.092,1.092,0,0,0-.876.182,1.42,1.42,0,0,0-.484.967,3.3,3.3,0,0,0,.151,1.571c1.6,3.414,5.167,5.288,10.666,5.62,4.865.3,7.07.876,6.647,1.752a.388.388,0,0,1-.453.212,5.035,5.035,0,0,1-.695-.574,1.254,1.254,0,0,1-.212-.332,4.378,4.378,0,0,0-1.692,1.329,2.977,2.977,0,0,1-1.178-1.088,2.617,2.617,0,0,0-1.511,1.239,4.729,4.729,0,0,1-.906-2.024,2.609,2.609,0,0,0-1.994,1.692.382.382,0,0,0-.423.363.725.725,0,0,0,.151.634v.574l-.091.121a.743.743,0,0,0-.121.332,1.5,1.5,0,0,0,.181,1.209,1.171,1.171,0,0,1,.816-.6,1.615,1.615,0,0,0,.876,1.511,1.144,1.144,0,0,1,.544-.695.778.778,0,0,0,.242.423.986.986,0,0,0,.363.181.758.758,0,0,1,.06-.544,2.761,2.761,0,0,0,1.541.423.951.951,0,0,0-.272.906,7.006,7.006,0,0,0-2.176,1.6,2.687,2.687,0,0,0-2.236.695.762.762,0,0,1,.6.151,11.72,11.72,0,0,0-3.535,2.629,17.014,17.014,0,0,0-1.269,1.3l-.514.6a1.723,1.723,0,0,0,.483-.06c.212-.091.3-.091.332-.031l-3.565,4.17a5.8,5.8,0,0,0-2.78.423,9.871,9.871,0,0,0-1.752-.513,3.813,3.813,0,0,0-1.39-.151,1.957,1.957,0,0,1-.6,0,.654.654,0,0,0-.363-.06l.393-.272a.415.415,0,0,0,.151-.242,7.706,7.706,0,0,1-2.115.091,17.9,17.9,0,0,0-2.145-.03.889.889,0,0,1,.393-.423,9.32,9.32,0,0,0-1.027.06,5.629,5.629,0,0,1-1.269-.031.836.836,0,0,0,.453-.483,6,6,0,0,1-2.327-.03,8.45,8.45,0,0,0-1.722-.212c-.121-.151-.151-.272-.06-.363a.934.934,0,0,1,.363-.272l-2.568-.181a.857.857,0,0,0,.514-.755,2.452,2.452,0,0,1-1.994.121,1.587,1.587,0,0,1-1-1.148c-.151.09-.242.3-.242.634a4.394,4.394,0,0,0-1-1.239c-.423-.362-.755-.634-.937-.816a3.767,3.767,0,0,1-.665-2.055c-.06-.544-.121-1.057-.151-1.48a4.216,4.216,0,0,0-.242-1.058,1.681,1.681,0,0,1-.242-.785.94.94,0,0,0,.634.181,5.731,5.731,0,0,1-1.239-3.233c0-.091.03-.091.121-.03a1.6,1.6,0,0,0,.665.182,2.43,2.43,0,0,1-.816-1.813,3.445,3.445,0,0,0-.091-.846,2.609,2.609,0,0,1-.091-.877,2.034,2.034,0,0,1,.423-.664c.242-.272.332-.484.272-.665a1.945,1.945,0,0,1,.484-.574l.665-.514a1.886,1.886,0,0,0,.332-.725c.061-.181-.091-.453-.393-.695a1.983,1.983,0,0,1-.544-.755c-.06-.212.06-.483.363-.846a2.943,2.943,0,0,0,.6-1.057,6.932,6.932,0,0,0,.151-1.239,7.664,7.664,0,0,0-.121-1.481,8.717,8.717,0,0,1-.212-1.148,4.951,4.951,0,0,1,1.239-3.2,2.964,2.964,0,0,0-2.568,2.085,10.544,10.544,0,0,1-1.873,3.2l.091.3c.091.121.151.182.272.151a.43.43,0,0,0,.3-.3l.181-.363c.967-.091,1.3.272.967,1.087a6.75,6.75,0,0,1-.6,1,1.672,1.672,0,0,1,.3,1.662,1.087,1.087,0,0,0-.544.242,8.292,8.292,0,0,1-1.178.635c-.091.03-.212.09-.3.121a6.325,6.325,0,0,1-1.813.181,7.048,7.048,0,0,1-2.3-.3l-.574-.3a1.153,1.153,0,0,0-.574-.181c.03-.242-.03-.393-.151-.454a2.382,2.382,0,0,0-.665-.121l-.695-1.873c-.091-.423-.061-.695.091-.785a.2.2,0,0,1,.181-.031.322.322,0,0,1,.151.091,1.79,1.79,0,0,1,.393,1.178.51.51,0,0,0,.091-.846,2.346,2.346,0,0,1-.212-1.329,1.487,1.487,0,0,0-.363-.725,11.371,11.371,0,0,1-.755-.876,2.543,2.543,0,0,1-.484-1.722,5.85,5.85,0,0,0,.03,3.6,2.1,2.1,0,0,1,.091,1.6,1.987,1.987,0,0,0,.272,1.36c.484.725.484,1.3,0,1.692a1.009,1.009,0,0,0,.091,1.269l1.088.816a.818.818,0,0,0,.514,1.058,2.411,2.411,0,0,1,.725,2.085,1.479,1.479,0,0,0-1.239-.03,3.933,3.933,0,0,1,1.632,2.206,4.7,4.7,0,0,0-3.173-.846,3.645,3.645,0,0,1,1.45,2.266,2.226,2.226,0,0,0,.393,2.508c-.393.3-.483,1.088-.3,2.417l.393-.725a3.033,3.033,0,0,0,.755,2.025c.06-.635.181-.906.3-.755l.544,1.118.212,2.84-.725.272a3.5,3.5,0,0,1,.816,1.48l-.242.242a.434.434,0,0,1-.181-.06l-.06-.031a2.6,2.6,0,0,0-2.266.06,3.941,3.941,0,0,1,1.481,1.36l-.242.151a3.687,3.687,0,0,0-2.478.242,7.37,7.37,0,0,1,1.964,2.024l-.212.755c-.151.363.03.755.453,1.118-.423.332-.544,1.148-.363,2.417.151-.574.332-.876.6-.937a4.206,4.206,0,0,0,.725,2.628,2.01,2.01,0,0,1,.3-1.178l.725,1.39.121,5.257a1.552,1.552,0,0,1-.06.483.75.75,0,0,1-.514.423.254.254,0,0,0-.272.363l.06.483c.181,0,.3,0,.363.061a1.067,1.067,0,0,1,.121.332,1.36,1.36,0,0,0,.574.785,2.252,2.252,0,0,0,1.088.393,1.921,1.921,0,0,0,1.178-.182,2.216,2.216,0,0,0,.937-1.088c.03-.151.06-.212.091-.212.061-.091.151-.091.272-.06a.833.833,0,0,0,.061-.816l-.484-.272a.415.415,0,0,1-.06-.363v-2.175c.03-.061.091-.03.121.03a1.885,1.885,0,0,1,.151.332,1.15,1.15,0,0,0,.453.725c-.03-.362.091-.574.3-.664a13.117,13.117,0,0,0,2.236,4.683,2.138,2.138,0,0,1-.121-.936,2.222,2.222,0,0,0,1.692.967c-.363-.272-.453-.454-.3-.514a20.953,20.953,0,0,0,5.227.241c0,.121-.151.242-.483.363l2.659-.09c-.211-.091-.242-.151-.091-.212a.68.68,0,0,1,.212.03l.453.181a9.642,9.642,0,0,0,2.3.513q-.363-.226-.272-.362a3.1,3.1,0,0,1,1.208.091,10.318,10.318,0,0,0,2.145.241q-.317-.136-.363-.272c.06-.06.212-.06.514.031l1.3.362a11.156,11.156,0,0,0,3.565.272c.121-.03.332.09.574.3l-.211-.544a4.082,4.082,0,0,1,2.991.786h-46.622Zm17.132-14.11a61.535,61.535,0,0,0-10.7,11.814h-6.1A59.748,59.748,0,0,1,1400.854,136.662Zm63.663,11.814h-63a41.739,41.739,0,0,1,13.053-10.636,39.686,39.686,0,0,1,36.137-.3A43.651,43.651,0,0,1,1464.516,148.476Zm-61.185-7.947a37.3,37.3,0,0,1,8.158-5.983,41.694,41.694,0,0,1,9.487-3.837,47.112,47.112,0,0,1,10.938-1.631,43.155,43.155,0,0,1,10.092.936,42.043,42.043,0,0,1,19.942,9.941,46.582,46.582,0,0,1,7.554,8.52h-2.961A44.6,44.6,0,0,0,1451.131,136a41.272,41.272,0,0,0-37.013.3,42.443,42.443,0,0,0-14.564,12.176h-2.84A36.125,36.125,0,0,1,1403.331,140.529Zm61.608-3.958a65.206,65.206,0,0,1,17.162,11.9h-6.436A61.426,61.426,0,0,0,1464.939,136.571Zm-14.171,117.536a1.47,1.47,0,0,0,.544.091,1.07,1.07,0,0,0,.786-.3,1.049,1.049,0,0,0,.3-.755.958.958,0,0,0-.3-.755,1.1,1.1,0,0,0-.786-.332,1.018,1.018,0,0,0-.514.151v-1.541h12.509a62.3,62.3,0,0,1-4.955,4.411h-7.614Zm17.434-8.7c-.363.423-.725.876-1.118,1.3-.937,1.058-1.873,2.085-2.87,3.082h-13.385l.121-4.381Zm-17.223-.906.121-1.843c.211,0,.393.03.574.03a1.083,1.083,0,0,0,1.088-1.058,1.1,1.1,0,0,0-.332-.785,1,1,0,0,0-.755-.3,1.247,1.247,0,0,0-.483.091l-.061-.453h21c-1,1.48-2.085,2.931-3.2,4.321Zm-57.862-14.866a14.71,14.71,0,0,0,0,1.692,2.32,2.32,0,0,0,.242,1.148,1.206,1.206,0,0,0,.7.635,4.253,4.253,0,0,0,1.42.182c1.964-.03,3.716-.121,5.318-.3,1.239-.151,2.78-.423,4.623-.785.574-.121,1.3-.242,2.085-.423a6.975,6.975,0,0,1,1.178-.182c.151,0,.272.031.3.091s.091.151.151.272q.317.363,1.9.363h.091c1.027,0,1.662-.121,1.873-.363a.9.9,0,0,1,.211-.242c.06-.06.151-.06.363-.06a9.779,9.779,0,0,1,1.269.181c.665.151,1.662.3,2.991.514,1.3.212,2.659.393,4.049.574,1.39.151,2.689.242,3.928.3a7.48,7.48,0,0,0,2.175-.121,1.3,1.3,0,0,0,.635-.635,3.374,3.374,0,0,0,.212-1.148,14.594,14.594,0,0,0,0-1.692h7.916v1.722a3.18,3.18,0,0,0,.211,1.118,1.874,1.874,0,0,0,.574.7,4.933,4.933,0,0,0,2.236.272,31.615,31.615,0,0,0,4.23-.332c1.511-.242,3.2-.514,5.046-.876q.861-.181,2.085-.453.816-.136,1.178-.182a.319.319,0,0,1,.3.121,1.146,1.146,0,0,1,.151.242c.211.242.846.363,1.9.393h.06c1.058-.03,1.692-.151,1.9-.393.06-.121.121-.212.212-.242a.616.616,0,0,1,.332-.06,7.015,7.015,0,0,1,1.3.212c.665.121,1.662.3,2.961.483,1.329.242,2.689.423,4.079.574q2.674.317,3.9.363a7.749,7.749,0,0,0,2.206-.121,1.176,1.176,0,0,0,.6-.7,2.456,2.456,0,0,0,.242-1.118v-1.722h5.65l-2.145,4.351h-85.9a19.982,19.982,0,0,1-2.206-4.351Zm-.091-5.288.03,1.39c.03.091,0,.121-.091.091a1.246,1.246,0,0,0-.483-.091,1,1,0,0,0-.755.3,1.082,1.082,0,0,0-.332.755,1.138,1.138,0,0,0,1.088,1.088,1.271,1.271,0,0,0,.483-.121c.061,0,.091.03.091.06v.876h-5.62a24.824,24.824,0,0,1-1.511-4.351Zm.03-5.2-.03,4.321h-7.433a34.492,34.492,0,0,1-1-4.321Zm.03-5.288v.393c0,.06-.03.06-.091.06a1.258,1.258,0,0,0-.483-.091,1,1,0,0,0-.755.3,1.088,1.088,0,0,0,.755,1.843,1.134,1.134,0,0,0,.483-.121q.136,0,.091.091l-.03,1.843h-8.672a33.168,33.168,0,0,1-.635-4.321Zm15.984,15.56a23.863,23.863,0,0,0-3.354.393c-1.632.272-3.082.453-4.321.574-1.269.121-2.6.182-4.019.182a.9.9,0,0,1-.755-.332,1.334,1.334,0,0,1-.181-.484c0-.03-.03-.06-.03-.091v-.332l.121-18.582a18.656,18.656,0,0,0,4.683.393c1-.091,2.387-.3,4.23-.544a8.135,8.135,0,0,1,3.837.03,6.911,6.911,0,0,1,1.48.695v18.492A4.476,4.476,0,0,0,1409.072,229.421Zm-13.325.6a1.494,1.494,0,0,0,.181.936.938.938,0,0,0,.755.332,39.3,39.3,0,0,0,4.472-.3c.695-.121,1.964-.3,3.777-.635,1.36-.242,2.417-.363,3.112-.423a6.307,6.307,0,0,1,2.719.392v.816a2.892,2.892,0,0,0-1.964-.241c-.514.06-1.692.272-3.445.6-1.873.363-3.414.635-4.623.786a34.465,34.465,0,0,1-5.469.272c-.846-.03-1.3-.362-1.329-.967,0-.635-.03-1.3-.03-1.964-.121-4.864-.121-10.484,0-16.83a4.086,4.086,0,0,1,2.176-2.085c-.06,2.175-.181,5.378-.3,9.668C1395.687,224.134,1395.687,227.337,1395.747,230.026Zm15.893-.242.091-18.461a2.612,2.612,0,0,0,.423-.242,5.269,5.269,0,0,1,1.027-.453,7.555,7.555,0,0,1,1.752-.393,11.31,11.31,0,0,1,2.055.363,18,18,0,0,0,4.26.483,33.686,33.686,0,0,0,4.623-.362q.272,9.336-.272,18.884a.576.576,0,0,1-.332.514,3.806,3.806,0,0,1-1.329.06c-1.178-.06-2.055-.121-2.689-.151q-2.765-.181-4.442-.363c-1.662-.181-2.81-.272-3.414-.272A4.042,4.042,0,0,0,1411.64,229.784Zm0,.544a6.238,6.238,0,0,1,2.689-.392c1.329.091,2.387.181,3.142.3a28.93,28.93,0,0,0,3.747.453,32.64,32.64,0,0,0,4.26.362.846.846,0,0,0,.755-.3,1.311,1.311,0,0,0,.181-.876c.091-3.6.121-6.768.03-9.487-.03-1.632-.06-3.535-.03-5.62.03-2.236.03-3.565,0-4.049a4.3,4.3,0,0,1,1.329.967,3.256,3.256,0,0,1,.725,1.118c0,2.81-.03,5.59-.091,8.37-.06,3.5-.121,6.949-.211,10.424-.06.665-.483,1-1.329,1.028a33.765,33.765,0,0,1-5.167-.3c-1.934-.242-3.444-.453-4.623-.695-1.752-.363-2.9-.544-3.414-.6a3.531,3.531,0,0,0-1.994.121Zm17.494-12.146.121-1.873c0-.031.03-.061.091-.061a1.262,1.262,0,0,0,.484.121,1.138,1.138,0,0,0,1.088-1.088,1.083,1.083,0,0,0-.332-.755,1,1,0,0,0-.755-.3,1.259,1.259,0,0,0-.484.091h-.06c-.03,0-.03-.03-.03-.091l.03-.393h7.373v.393c0,.061,0,.091-.03.091h-.06a2.265,2.265,0,0,0-.483-.121,1.306,1.306,0,0,0-.786.332,1.1,1.1,0,0,0,0,1.511,1.151,1.151,0,0,0,.786.332,1.261,1.261,0,0,0,.483-.121c.06,0,.091.03.091.061v1.873Zm-.151,5.257.121-4.381h7.524v4.381Zm6.315,4.139a1.271,1.271,0,0,0,.786.3.886.886,0,0,0,.483-.121c.06,0,.091.03.091.06v.907h-7.765v-.907c.03-.03.06-.06.091-.06a1.428,1.428,0,0,0,.484.121,1.1,1.1,0,0,0,.786-.332,1.03,1.03,0,0,0,.332-.755,1.082,1.082,0,0,0-.332-.755,1.07,1.07,0,0,0-.786-.3,1.362,1.362,0,0,0-.484.091c-.06.03-.091,0-.091-.091l.06-1.39h7.675l.03,1.42a.08.08,0,0,1-.091.091.886.886,0,0,0-.483-.121,1.036,1.036,0,0,0-1.088,1.087A1.192,1.192,0,0,0,1435.3,227.578Zm17.4,1.873q-.952,0-3.354.272-2.447.272-4.351.544a29.327,29.327,0,0,1-3.233.3c-.907,0-1.42-.061-1.541-.242a.553.553,0,0,1-.181-.453c0-.091.03-.272.03-.544l.091-18.552a20.231,20.231,0,0,0,4.683.393c.967-.091,2.387-.3,4.23-.574a8.134,8.134,0,0,1,3.837.03,12.378,12.378,0,0,1,1.481.695v18.522A3.577,3.577,0,0,0,1452.7,229.452Zm-15.168.181c-.121-4.864-.121-10.454,0-16.83a4.246,4.246,0,0,1,2.145-2.085c-.061,2.175-.151,5.408-.272,9.668-.091,3.747-.091,6.98-.03,9.669a1.4,1.4,0,0,0,.181.906.938.938,0,0,0,.755.332,33.354,33.354,0,0,0,4.472-.3c.695-.091,1.964-.3,3.777-.6a26.738,26.738,0,0,1,3.112-.423,6.337,6.337,0,0,1,2.719.363v.846a2.757,2.757,0,0,0-1.964-.242c-.514.061-1.692.242-3.444.6-1.873.362-3.626.695-5.288,1.027a16.428,16.428,0,0,1-4.351.363c-1.239-.091-1.843-.544-1.783-1.33C1437.534,230.962,1437.534,230.3,1437.534,229.633Zm17.736.151.091-18.431a3.094,3.094,0,0,1,.423-.242,8.1,8.1,0,0,1,1.027-.483,5.811,5.811,0,0,1,1.753-.363,9.124,9.124,0,0,1,2.055.363,18.2,18.2,0,0,0,4.26.453,29.456,29.456,0,0,0,4.623-.362c.181,6.224.181,11-.03,14.322-.06.967-.091,2.145-.151,3.505a9.515,9.515,0,0,1-.091,1.239,1.333,1.333,0,0,1-.665.544,1.721,1.721,0,0,1-.876.121l-7.252-.786a27.223,27.223,0,0,0-3.414-.242A4.037,4.037,0,0,0,1455.271,229.784Zm0,.544a4.091,4.091,0,0,1,2.9-.574c1.178.121,2.3.272,3.324.453,1,.181,2.266.393,3.747.6a18.35,18.35,0,0,0,3.354.3,1.928,1.928,0,0,0,1.269-.332,1.358,1.358,0,0,0,.181-.907c.091-3.535.121-6.677.03-9.487-.03-1.692-.06-3.565-.03-5.62,0-2.205.03-3.565,0-4.049a3.944,3.944,0,0,1,1.329,1,4.029,4.029,0,0,1,.725,1.088c0,2.931-.06,5.741-.091,8.4-.06,3.716-.151,7.161-.242,10.394-.03.7-.453,1.058-1.3,1.088a38.113,38.113,0,0,1-5.167-.362c-.786-.091-1.631-.242-2.6-.453-.967-.242-1.632-.393-2.024-.453-2.085-.423-3.233-.635-3.444-.665a2.633,2.633,0,0,0-1.964.423Zm17.494-12.146.121-1.843a3.361,3.361,0,0,0,.544.06,1.058,1.058,0,1,0-.453-2.024l-.06-.514h9.216l-.665,4.321Zm7.493,5.288h-7.644l.121-4.381h8.581m-7.433,6.98a1.047,1.047,0,0,0-.786-.332,1.231,1.231,0,0,0-.544.151v-1.511h7.433a35.693,35.693,0,0,1-1.511,4.381h-5.952l.03-.967a1.464,1.464,0,0,0,.544.091,1.024,1.024,0,0,0,.786-.3,1.048,1.048,0,0,0,.3-.755A1,1,0,0,0,1473.883,226.068Zm-21.513-67.289a.674.674,0,0,0-.453-.272h-.151c-.03,0-.061-.03-.091-.06q0-.091.181-.181a1.538,1.538,0,0,1,1.329.121,3.976,3.976,0,0,1,1,1.027,2.127,2.127,0,0,1-1.178.544c-.212.031-.3-.06-.3-.272A1.1,1.1,0,0,0,1452.37,158.779Zm-5.318,11.21a44.826,44.826,0,0,1-9.639-.906,11.861,11.861,0,0,1-4.17-1.873,4.739,4.739,0,0,1-1.873-2.115q-.317-1,0-1.178c.212-.121.514.03,1,.544a9.921,9.921,0,0,0,6.466,2.961c3.807.423,6.526,1.057,8.158,1.964.272.121.423.272.453.392C1447.445,169.928,1447.324,169.989,1447.052,169.989Zm-1.3,2.327a.592.592,0,0,1,.242-.393c0,.181.121.3.363.453Zm36.711,36.53-.181,4.049h-9.246a5.072,5.072,0,0,0-1.027-1.783,3,3,0,0,0-1.541-1.118,3.764,3.764,0,0,0-.816-.03c-2.417.332-3.807.514-4.17.6a5.25,5.25,0,0,1-1.722,0,24.2,24.2,0,0,1-2.6-.423c-1.027-.212-1.632-.332-1.752-.332a6.179,6.179,0,0,0-2.629.393c-.393.182-.695.332-.876.393a2.8,2.8,0,0,1-.906.272.983.983,0,0,1-.665-.121c-.272-.181-.544-.332-.816-.483a6.749,6.749,0,0,0-3.988-.061,21.427,21.427,0,0,1-4.019.453,20.529,20.529,0,0,1-2.629-.3c-2.206-.393-3.445-.483-3.747-.272-1.541,1.178-2.357,2.115-2.478,2.81h-7.342a6.289,6.289,0,0,0-.574-1.209,4.027,4.027,0,0,0-.423-.574,3,3,0,0,0-1.541-1.118,4.169,4.169,0,0,0-.846-.03q-3.58.453-3.988.453c-.272.03-.786.03-1.541.03a13.208,13.208,0,0,1-2.931-.3c-1.057-.212-1.632-.332-1.753-.332a6.106,6.106,0,0,0-2.629.393c-.393.182-.695.332-.876.393a3.037,3.037,0,0,1-.907.272.983.983,0,0,1-.665-.121c-.272-.181-.544-.332-.816-.483a6.925,6.925,0,0,0-3.867-.181,42.459,42.459,0,0,1-4.411.423,14.034,14.034,0,0,1-2.357-.151c-2.3-.423-3.565-.513-3.837-.3-1.511,1.148-2.266,2.145-2.266,2.931l-9.427-.091c-.091-1-.151-1.692-.181-2.146a9.877,9.877,0,0,1,0-1.9Zm-67.621,36.59v4.351h-13.264c-.212-.182-.423-.393-.635-.6l-2.055-2.205-.061-.091q-.634-.726-1.178-1.451Zm-1.329-3.082a1.118,1.118,0,0,0,.786.3,1.258,1.258,0,0,0,.483-.091c.061,0,.091,0,.091.06v1.9H1396.9l-3.293-4.381h21.271v.393a.112.112,0,0,1-.03.091h-.061a2.227,2.227,0,0,0-.483-.121,1.307,1.307,0,0,0-.786.332,1.1,1.1,0,0,0,0,1.511Zm0,11.542a1.273,1.273,0,0,0,.786.3.889.889,0,0,0,.483-.121c.091,0,.121.03.121.06v.937h-7.433l-4.925-4.351H1414.9l.03,1.36c0,.061-.06.091-.151.061a1.246,1.246,0,0,0-.483-.091,1.118,1.118,0,0,0-.786.3,1.208,1.208,0,0,0-.3.786A1.262,1.262,0,0,0,1413.514,253.9Zm4.532,2.3a2.321,2.321,0,0,0,.03-.544l.091-18.552a18.046,18.046,0,0,0,4.683.3c.272-.03.816-.151,1.632-.332a18.753,18.753,0,0,1,2.266-.453,8.661,8.661,0,0,1,2.478.091,13.566,13.566,0,0,1,1.692.363,6.014,6.014,0,0,1,1.632.574V256.1a4.18,4.18,0,0,0-1.843-.332q-.907,0-3.354.272c-1.6.181-3.052.392-4.321.544a29.22,29.22,0,0,1-3.263.3c-.906.03-1.42-.061-1.541-.242A.88.88,0,0,1,1418.046,256.192Zm-2.266,1.209c-.03-.483-.03-.967-.03-1.45-.121-4.865-.121-10.455,0-16.83a3.283,3.283,0,0,1,2.145-2.085c-.03,2.175-.151,5.378-.272,9.668-.091,3.747-.091,6.98-.03,9.669a1.155,1.155,0,0,0,.242.906c.181.242.695.332,1.541.332a28.7,28.7,0,0,0,3.626-.3c.695-.091,1.964-.3,3.777-.6a26.693,26.693,0,0,1,3.112-.423,6.332,6.332,0,0,1,2.719.363v.816a2.19,2.19,0,0,0-1.813-.453c-.725.121-1.964.362-3.747.785-1.752.393-3.475.755-5.136,1.088a16.322,16.322,0,0,1-4.351.363,7.453,7.453,0,0,0-1.027-.06.631.631,0,0,1-.6-.242,1.308,1.308,0,0,1-.151-1.028Zm34.445-19.972a3.914,3.914,0,0,0-1.088-.967l-.453-.181h-.816l-1.511.181c-1.48.212-2.326.332-2.478.332-.212,0-.755-.03-1.6-.06a15.792,15.792,0,0,1-2.115-.151c-.574-.09-.937-.151-1.088-.151a9.886,9.886,0,0,0-1.239-.06,6.559,6.559,0,0,0-1.752.091c-.544.091-.967.181-1.239.242-.3.06-.574.121-.876.181a4.284,4.284,0,0,1-.816.151,1.394,1.394,0,0,1-.6.03,7.877,7.877,0,0,0-1.964-.484,14.655,14.655,0,0,0-2.176-.3c-1.39.06-2.085.09-2.115.09-.846.121-1.631.212-2.326.272a11.376,11.376,0,0,1-2.87.03c-.483-.091-.967-.181-1.45-.3a8.764,8.764,0,0,0-1.6-.151,1.7,1.7,0,0,0-1.36.453,8.27,8.27,0,0,0-1.148,1.269,3.311,3.311,0,0,0-.665,1.3h-21.815l-2.538-4.321h84.844c-.816,1.45-1.662,2.871-2.568,4.261h-21.543A5.235,5.235,0,0,0,1450.225,237.428Zm-16.739.212a5.2,5.2,0,0,0,.725-.272c.544-.182.906-.272,1.148-.332a6.748,6.748,0,0,1,1.511-.121c.151,0,.423,0,.876-.031a9.487,9.487,0,0,1,1.3.121,33.163,33.163,0,0,0,4.079.454c.665,0,2.206-.151,4.562-.454.03,2.75,0,6.708-.06,11.874-.06,4.774-.121,7.191-.151,7.221-.03.091-.06.212-.121.454a.739.739,0,0,1-.423.363,2.922,2.922,0,0,1-.967.03,52.076,52.076,0,0,1-7.312-.785,32.675,32.675,0,0,0-3.384-.393,3.734,3.734,0,0,0-1.752.393Zm0,19.005a2.875,2.875,0,0,1,1.3-.423,7.637,7.637,0,0,1,1.6.06c1.209.121,2.3.272,3.324.453,1,.182,2.266.393,3.747.635a18.657,18.657,0,0,0,3.323.182,1.69,1.69,0,0,0,1.3-.453,1.359,1.359,0,0,0,.181-.907c.091-3.474.121-6.647.03-9.487-.03-1.782-.06-3.656-.03-5.62,0-2.205.03-3.565,0-4.049a4.307,4.307,0,0,1,1.329.967,4.736,4.736,0,0,1,.725,1.118c0,2.659-.03,5.469-.091,8.4-.06,3.6-.121,7.04-.242,10.394-.03.907-.544,1.329-1.571,1.269-1.027-.091-2.236-.242-3.656-.453-1.42-.242-2.719-.454-3.868-.665-.937-.151-1.6-.272-1.994-.333-2.085-.423-3.233-.634-3.414-.665a2.679,2.679,0,0,0-1.994.393Zm49.945-38.01c.03-.181.06-.332.091-.514a47.968,47.968,0,0,0,.786-9.064l-.03-23.628a32.577,32.577,0,0,1,8.188,10.7,41.959,41.959,0,0,1,4.2,12.66,42.685,42.685,0,0,1-3.112,22.48,40.981,40.981,0,0,1-6.436,9.971,36.563,36.563,0,0,1-9.578,8.007,41.678,41.678,0,0,1-8.853,4.109,35.667,35.667,0,0,1-6.557,1.269,85.072,85.072,0,0,0,6.345-6.436,69.11,69.11,0,0,0,11.814-18.915,49.621,49.621,0,0,0,2.266-6.677C1482.887,221.294,1483.189,219.964,1483.431,218.635Zm7.1-60.581a30.317,30.317,0,0,0-6.285-1.42v-6.043A58.408,58.408,0,0,1,1490.531,158.054Zm3.414,5.892-3.354,1.934a44.719,44.719,0,0,0-6.345-2.054V160.8A68.094,68.094,0,0,1,1493.946,163.946Zm-9.669,18.4-.03-16.618a15.811,15.811,0,0,1,4.955,1.45A63.511,63.511,0,0,1,1484.277,182.347Zm4.895.454-3.233.241a125.656,125.656,0,0,0,5.136-15.953l3.052-1.692A96.771,96.771,0,0,1,1489.172,182.8Zm9.125,11.059a40.59,40.59,0,0,0-7.433-10.606,81.726,81.726,0,0,0,5.439-19.942,32.7,32.7,0,0,0-6.949-2.779c-2.236-.574-3.928-1-5.106-1.179v-.876a40.494,40.494,0,0,1,10.243,3.021,65.7,65.7,0,0,0-16.709-18.612,77.053,77.053,0,0,0-24.081-12.509,56.379,56.379,0,0,1,19.791,18.1H1471.5c-.181-.272-.363-.544-.514-.816q-.362-.589-.725-1.088c-.272-.392-.544-.755-.846-1.148q-.408-.544-1-1.269a15.243,15.243,0,0,0-1.178-1.39c-.423-.483-.876-1-1.39-1.511-.665-.695-1.36-1.329-2.055-1.964a50.611,50.611,0,0,0-10.152-7.07,41.2,41.2,0,0,0-10.424-3.716c-1.843-.362-3.414-.634-4.744-.785a40.809,40.809,0,0,0-5.2-.242c-1.934.031-3.958.151-6.043.393a46.875,46.875,0,0,0-5.68.967,42.027,42.027,0,0,0-10.122,3.988,44.221,44.221,0,0,0-16.89,15.651h-2.176a56.053,56.053,0,0,1,19.73-18.038,78.369,78.369,0,0,0-24.081,12.509,65.753,65.753,0,0,0-16.679,18.612,40.978,40.978,0,0,1,10.394-3.052l-.03.725c-1,.212-2.6.6-4.834,1.178a32.707,32.707,0,0,0-6.949,2.779,81.735,81.735,0,0,0,5.439,19.942,40.586,40.586,0,0,0-7.433,10.605,51.793,51.793,0,0,0-4.079,12.026,41.66,41.66,0,0,0-.635,12.871,48.765,48.765,0,0,0,3.142,13.023,49.613,49.613,0,0,0,6.466,11.663,40.052,40.052,0,0,0,9.759,9.215,48.03,48.03,0,0,0,13.174,6.164,49.725,49.725,0,0,0,15.984,1.964c.332.242.695.453,1.027.665h-.272a44.522,44.522,0,0,1-26.952-5.227,73.544,73.544,0,0,0,44.869,17.4,35.728,35.728,0,0,1-8.732-7.856c.725.241,1.481.483,2.236.695.03,0,.091.031.121.031a25.4,25.4,0,0,0,8.37,7.281l.544.272c.151-.091.363-.181.544-.272a24.023,24.023,0,0,0,8.37-7.251c.786-.212,1.571-.484,2.327-.725-3.233,3.868-6.134,6.5-8.732,7.886a72.538,72.538,0,0,0,44.9-17.464,44.415,44.415,0,0,1-27.012,5.348l.906-.635a51.546,51.546,0,0,0,16.225-1.994,48.041,48.041,0,0,0,13.174-6.164,40.641,40.641,0,0,0,9.759-9.216,50.218,50.218,0,0,0,6.466-11.663,48.761,48.761,0,0,0,3.142-13.023,42.613,42.613,0,0,0-.634-12.871A51.787,51.787,0,0,0,1498.3,193.859Zm10.787-17.646.453.423A.583.583,0,0,0,1509.083,176.213Zm-4.14,27.5q-4.215-13.552-10.756-20.456a129.425,129.425,0,0,0,3.777-13.264A72.792,72.792,0,0,1,1504.944,203.709Zm.121-16.407a57.88,57.88,0,0,0-3.172-11.784,82.4,82.4,0,0,0-4.8-10.243,74.445,74.445,0,0,1-1.934,8.883c-.695,2.538-1.662,5.56-2.84,9.095a62.032,62.032,0,0,1,8.913,14.836,46.308,46.308,0,0,1,3.475,16.376,57.254,57.254,0,0,0,1.541-14.352A92.97,92.97,0,0,0,1505.065,187.3Zm-61.94,52.906c1.208-.06,1.873.182,1.934.695a.828.828,0,0,1-.181.786,1.957,1.957,0,0,1-.937.393c-.393.151-.665.091-.816-.212Zm-2.236,5.529.091.363,2.055-.272.091-2.78a.47.47,0,0,1,.453-.06.593.593,0,0,1,.393.272,9.414,9.414,0,0,1,.544,1.209,6.915,6.915,0,0,1,.423.695,2.456,2.456,0,0,0,.332.393c.242.181.393.272.423.3a8.454,8.454,0,0,0,1.752.061,3.258,3.258,0,0,1-1.269-1.541,7.621,7.621,0,0,0-.332-.937,9.151,9.151,0,0,0-.453-.937,3.941,3.941,0,0,0,.967-1.692,1.315,1.315,0,0,0-.423-1.269c-.816-.7-2.508-.846-5.046-.393v.484a.789.789,0,0,1,.816.906l-.091,4.23A1.064,1.064,0,0,1,1440.888,245.738Zm21.573-26.408.453.634,2.145-.272a.605.605,0,0,1,.06-.393.948.948,0,0,0,.121-.362l-.332-.061c-.242-.03-.363-.181-.363-.332l.091-4.683c-.03-.363.181-.635.6-.816v-.453l-2.508.091v.544a.638.638,0,0,1,.544.544v4.774A.77.77,0,0,1,1462.462,219.33Zm-22.147.121.453.635,2.175-.272a.527.527,0,0,1,.03-.423.835.835,0,0,0,.151-.362l-.363-.031a.414.414,0,0,1-.363-.363l.091-4.653q-.045-.589.635-.816v-.453l-2.538.091v.544q.408,0,.544.544v4.744A.794.794,0,0,1,1440.314,219.451Zm20.909,4.532h-1.088l.544.906-.453.876h1l.544,1,.544-1,1.058.091-.514-.967.514-.906h-1.058l-.544-1.088Zm-11.3-10.636a1.954,1.954,0,0,0-.363,1.451c.03.574.423,1.027,1.209,1.359a2.835,2.835,0,0,1,1.511,1.178,1.167,1.167,0,0,1,.091,1.239,1.5,1.5,0,0,1-1.843-.091l-.06-.544-.544-.454-.544,2.327,1.3.182q-.091-.181,0-.272c1.813.423,2.84.061,3.142-1.058a4.917,4.917,0,0,0,.03-1.752,1.189,1.189,0,0,0-.574-.785,3.5,3.5,0,0,0-.937-.332,9.8,9.8,0,0,1-1.118-.363,1.242,1.242,0,0,1-.453-.786,1.36,1.36,0,0,1,.121-.846.694.694,0,0,1,.6-.393,1.008,1.008,0,0,1,.876.393l-.151.635h.755l.484-1.813-.846.091-.151.242a5.51,5.51,0,0,0-1.541-.242A1.322,1.322,0,0,0,1449.922,213.347Zm-4.109,8.309a1.424,1.424,0,0,1,0-.725h-5.59a1.156,1.156,0,0,1,.03.755,1.493,1.493,0,0,0,.06.846h.635a1.049,1.049,0,0,1,.3-.665,1.509,1.509,0,0,0,.212-.241l.06-.121a1.643,1.643,0,0,1,.332.03,1.845,1.845,0,0,1,.514.121l.091,5.56a1.016,1.016,0,0,1-1,.906v.272h2.87a.925.925,0,0,1,.091-.454,1.92,1.92,0,0,0,.091-.453,1.326,1.326,0,0,1-.725-.514v-5.227a2.251,2.251,0,0,1,1.118,0,.645.645,0,0,1,.453.695l.544.091A2.445,2.445,0,0,0,1445.813,221.656Zm-1.692-8.037,1.873,6.043,1.088.272.181-.272-.544-.544,2.236-5.56a4.7,4.7,0,0,1,.483-.453,2.021,2.021,0,0,1,.635-.272l.091-.3-2.115-.031.3.423-1.722,4.2-1.36-4.472h-2.055v.544A.759.759,0,0,1,1444.121,213.619Zm13.385-.332a1.354,1.354,0,0,1,.363,0,1.592,1.592,0,0,1,.483.121l.091,5.589a.969.969,0,0,1-1,.877v.272h2.9a.855.855,0,0,1,.06-.453,1.518,1.518,0,0,0,.091-.423,1.277,1.277,0,0,1-.695-.514V213.5a3.19,3.19,0,0,1,1.329,0,.705.705,0,0,1,.453.725l.544.091a2.442,2.442,0,0,0-.091-.876,1.559,1.559,0,0,1,0-.755h-5.922a1.529,1.529,0,0,1,0,.755,1.34,1.34,0,0,0,.091.876h.635a.983.983,0,0,1,.3-.695C1457.325,213.438,1457.446,213.347,1457.506,213.287Zm-36.832,6.224.453.635,2.145-.272a.723.723,0,0,1,.061-.423.736.736,0,0,0,.121-.332l-.363-.031c-.211-.06-.332-.181-.332-.362l.091-4.683c-.03-.363.181-.635.6-.816V212.8l-2.508.091v.514a.638.638,0,0,1,.544.544v4.774A.77.77,0,0,1,1420.674,219.511Zm-1.873,26.71.272.332,4.2-.151.816-2.447a5.969,5.969,0,0,1-1.783,1.994,1.258,1.258,0,0,1-.816,0l-.635-.544.091-5.136a.624.624,0,0,1,.544-.725l.181-.514-2.689.363.181.6a.308.308,0,0,1,.363.182l-.121,4.955A1.052,1.052,0,0,1,1418.8,246.221Zm5.62-5.862V245.1a.769.769,0,0,1-.786.816l.453.635,2.145-.272a.725.725,0,0,1,.06-.423.72.72,0,0,0,.121-.363l-.363-.03a.45.45,0,0,1-.363-.363l.091-4.653a.827.827,0,0,1,.635-.816v-.453l-2.508.09v.544C1424.179,239.815,1424.361,240,1424.421,240.359Zm3.988.091,1.329-.091a1.371,1.371,0,0,1,.695.574.557.557,0,0,1-.03.574,2,2,0,0,1-1.722.665Q1428.364,242.082,1428.409,240.45Zm2.6,3.505a.936.936,0,0,1-.635,1.269,1.213,1.213,0,0,1-1.783-.181l-.091-1.874A2.948,2.948,0,0,1,1431.008,243.955Zm-.181,2.357a1.7,1.7,0,0,0,.937-.725,2.04,2.04,0,0,0,.3-1.148,2.286,2.286,0,0,0-.3-1.178,1.762,1.762,0,0,0-.937-.816c1.36-1.3,1.269-2.387-.272-3.233l-3.686.212a.759.759,0,0,1,.091.574h.181q.408,0,.363.363l-.181,4.684a1.3,1.3,0,0,1-.635,1l.181.272Zm-16.8-19.428-.091-.544-.635-.423-.6,2.326,1.511.182c-.091-.121-.091-.212,0-.3,2.115.423,3.324.091,3.656-1.027a3.435,3.435,0,0,0,.03-1.753,1.235,1.235,0,0,0-.635-.816,4.607,4.607,0,0,0-1.118-.332,8.122,8.122,0,0,1-1.3-.363,1.121,1.121,0,0,1-.544-.786,1.089,1.089,0,0,1,.151-.816.951.951,0,0,1,.695-.423,1.545,1.545,0,0,1,1.058.423l-.211.635h.906l.544-1.813-1,.09-.151.212a7.262,7.262,0,0,0-1.813-.212,1.555,1.555,0,0,0-1.178.635,1.9,1.9,0,0,0-.423,1.451c.061.574.514,1.027,1.42,1.329a3.482,3.482,0,0,1,1.783,1.209,1.07,1.07,0,0,1,.121,1.209A1.915,1.915,0,0,1,1414.027,226.884Zm6.1-1.692-.453.906h1l.544.967.544-.967,1.088.091-.544-1,.544-.907h-1.088l-.544-1.057-.544,1.057h-1.088Zm-4.562-11.6c1.209-.06,1.843.181,1.934.725a.88.88,0,0,1-.212.755,2.473,2.473,0,0,1-.937.423c-.393.121-.665.061-.786-.241Zm-2.266,5.59.091.332,2.085-.242.091-2.81a.4.4,0,0,1,.423-.061.721.721,0,0,1,.393.272c.06.091.242.483.574,1.239.121.181.272.423.423.665a1.6,1.6,0,0,0,.3.393,1.735,1.735,0,0,0,.453.3,8.023,8.023,0,0,0,1.722.091,3.323,3.323,0,0,1-1.239-1.571c-.151-.393-.272-.725-.363-.936a6.291,6.291,0,0,0-.453-.907,4.2,4.2,0,0,0,.967-1.722,1.24,1.24,0,0,0-.423-1.239c-.816-.725-2.508-.846-5.046-.423v.483a.789.789,0,0,1,.816.907l-.091,4.23A1.136,1.136,0,0,1,1413.3,219.179Zm16.286,30.97a.419.419,0,0,1-.272.453,2.923,2.923,0,0,1-.906.061c-.151,0-.272-.121-.363-.332a4.48,4.48,0,0,1,.393-1.964c.483-.242.786-.151.967.242A3.857,3.857,0,0,1,1429.588,250.149Zm1.631,3.324a22.905,22.905,0,0,1-1-4.472c0-.665.363-1,1.057-.967l.363-.816-5.922.182a.769.769,0,0,0,.181.574.906.906,0,0,0,.544.121.366.366,0,0,1,.393.212.723.723,0,0,1,.06.514l-1.178,4.5a1.18,1.18,0,0,1-.816,1l.181.362,1.9-.091.514-2.085c.181-.967.906-1.329,2.266-1.058l.967,3.415,1.269-.182.151-.6A.77.77,0,0,1,1431.219,253.473Zm17.1-26.2h-.06m0,0a1.133,1.133,0,0,1-.725.755l.061.091m-14.987,29.339v-.816m.937,13.748.06-2.508m-1.239,4.592v-1.39m1.148,1.39.03-1.3m-1.209-.755-.03-2.538m-24.837-12.811-4.925-4.351m30.94-13.083.03,18.522m-36.62-11.633-3.293-4.381m124.244-64.267c-.151-.272-.332-.362-.514-.3-.212.06-1.994-.06-5.318-.272-1.662-.121-3.294-.242-4.925-.363a8.7,8.7,0,0,1-1.3-1c-.3-.091-.483.06-.514.423a8.1,8.1,0,0,0,.393,1.692v.03a1.081,1.081,0,0,1,.121.272,9.158,9.158,0,0,0,.635,1.36.427.427,0,0,0,.453.06.831.831,0,0,0,.242-.695v-.031a1.152,1.152,0,0,1,.091-.483.54.54,0,0,1,.272-.3.156.156,0,0,1,.121-.06,2.027,2.027,0,0,1,1.481,0l.453.423a21.8,21.8,0,0,1,1.178,3.837,4.729,4.729,0,0,1-1.692,1.239.36.36,0,0,1-.423-.121,4.621,4.621,0,0,0-.453-.574c-.3-.242-.544-.151-.695.332a12.58,12.58,0,0,0,1.269,3.9.511.511,0,0,0,.484.212c.181-.031.272-.181.363-.423a1.033,1.033,0,0,1-.03-.513,1.478,1.478,0,0,1,.393-.786c1.148-1,2.75-2.387,4.834-4.17a20.7,20.7,0,0,0,3.233-2.961A1.129,1.129,0,0,0,1517.846,175.881Zm-2.78,1-3.354,2.689-1-3.264,4.291.332C1515.126,176.7,1515.156,176.787,1515.066,176.878Zm-30-45.806a.772.772,0,0,1-.06-.212l-.3-.6c-.121-.363.091-.514.635-.483a12.184,12.184,0,0,1,1.39.906,17.248,17.248,0,0,1,1.42,1.178.7.7,0,0,1,.091.574.436.436,0,0,1-.393.151,6.029,6.029,0,0,1-.695-.031.53.53,0,0,0-.453.182c-1.541,1.783-3.2,3.988-4.985,6.526l-.151.3a.341.341,0,0,0,.091.332c.272.393.363.635.212.846-.121.151-.393.181-.755.091a12.15,12.15,0,0,1-2.689-2.176.567.567,0,0,1,.061-.453.45.45,0,0,1,.453-.151l.6.06a.528.528,0,0,0,.423-.212,58.5,58.5,0,0,0,5.076-6.587.241.241,0,0,0,.03-.241m-5.65-4.956v.031a.291.291,0,0,1-.181.272,2.337,2.337,0,0,1-.544-.06c-.212-.03-.363,0-.423.09a52.685,52.685,0,0,0-4.321,6.919.779.779,0,0,0,0,.816,6.668,6.668,0,0,0,2.085,1.42,3.109,3.109,0,0,0,1.057,0l1.45-.7q.634-.181.544.544a6.762,6.762,0,0,1-2.085,2.236q-.272.091-.544-.272a1.5,1.5,0,0,0-.6-.544l-5.318-3.233a.387.387,0,0,1-.212-.544q.181-.317.816-.272h.423a.415.415,0,0,0,.3-.241,60.173,60.173,0,0,0,3.9-6.466l.363-.635c.181-.212.03-.544-.393-1.057a.443.443,0,0,1,.06-.332.461.461,0,0,1,.332-.182,9.57,9.57,0,0,1,3.142,1.9.373.373,0,0,1,.151.3m30.154,30.94c0-.03-.03-.06-.03-.09a49.072,49.072,0,0,0-3.263-5.2c-.544-.332-.786-.181-.755.514l.061.363a.4.4,0,0,1-.272.453,37.214,37.214,0,0,1-4.8,3.112c-.725.392-1.45.755-2.206,1.118a.646.646,0,0,1-.574.03l-.6-.392a.394.394,0,0,0-.363.181.307.307,0,0,0-.091.3,4.517,4.517,0,0,0,.725,1.752,6.565,6.565,0,0,0,1.36,1.541.48.48,0,0,0,.514-.332l-.091-.695a.489.489,0,0,1,.242-.483c.363-.242.725-.483,1.088-.755.544-.332,1.088-.695,1.632-1a.384.384,0,0,1,.6.06,3.64,3.64,0,0,1,.846,2.357,4.259,4.259,0,0,1-1.088,1.783,7.528,7.528,0,0,0-.786.937,5.472,5.472,0,0,0-.695,1,2.034,2.034,0,0,0,.03,1.632,2.4,2.4,0,0,0,1.148,1.178c.3.031.514,0,.635-.151a.283.283,0,0,0,0-.453.793.793,0,0,1-.212-.967,4.753,4.753,0,0,1,1.239-1.451c.3-.363.544-.6.665-.785a2.458,2.458,0,0,0,.423-.906,1.516,1.516,0,0,0,.091-.695,2.086,2.086,0,0,0-.242-.635c-.06-.151,0-.212.151-.121a3.464,3.464,0,0,0,2.055.846,2.715,2.715,0,0,0,1.783-.544,2.541,2.541,0,0,0,.755-.846,3.1,3.1,0,0,0,.242-.635A2.979,2.979,0,0,0,1509.567,157.057Zm-1.42.695a2.284,2.284,0,0,1-.725,1.148,1.579,1.579,0,0,1-1.3.393,2.615,2.615,0,0,1-1.541-.786,7.587,7.587,0,0,1-1.088-1.813l3.082-1.753c.484-.332,1,.121,1.511,1.36A2.383,2.383,0,0,1,1508.147,157.752Zm-9.7-14.684c0-.695.3-.785.967-.332l4.381,5.288c.514.3.725.574.635.786a4.888,4.888,0,0,1-1.36,1.692c-.332.091-.544.03-.635-.212a1.47,1.47,0,0,1,.151-.876,1.532,1.532,0,0,0-.03-1.209l-1.783-2.175a1.662,1.662,0,0,0-.272-.212.7.7,0,0,0-.846.121,15.874,15.874,0,0,0-2.085,1.481c-.242.212-.272.392-.091.6l1.118,1.39a.712.712,0,0,0,.725.392,2.719,2.719,0,0,0,.786-.332,2.656,2.656,0,0,1,.393-.212.417.417,0,0,1,.272,0,.534.534,0,0,1,.272.242.3.3,0,0,1-.061.3c-.151.181-.3.363-.483.544a9.223,9.223,0,0,1-3.052,2.206c-.061.031-.121,0-.212-.121a.386.386,0,0,1,0-.363l.665-.967a.678.678,0,0,0,.03-.846l-1.42-1.6c-.121-.091-.333-.06-.635.121l-2.236,2.055a.685.685,0,0,0-.121.695,19.17,19.17,0,0,0,2.055,2.569,1.221,1.221,0,0,0,1.239.3l1.027-.181h.453c.363.06.272.332-.212.846a4.653,4.653,0,0,1-2.3,1.118c-.272.06-.453,0-.514-.241a1.3,1.3,0,0,0-.242-.574c-1.662-1.9-2.9-3.414-3.716-4.472a9.772,9.772,0,0,1-.876-1.269c-.121-.332,0-.514.393-.544a.7.7,0,0,1,.634.181.366.366,0,0,0,.453-.03,52.549,52.549,0,0,0,6.526-5.2.517.517,0,0,0,.121-.483l-.121-.483m-2.991-3.988a5.018,5.018,0,0,0-.242-.725,2.047,2.047,0,0,0-.6-.665l-4.532-4.139q-1.043-.046-.544.906a.832.832,0,0,1,0,.755c-2.024,2.417-3.837,4.411-5.469,6.043a.843.843,0,0,1-.937.151c-.393-.151-.634-.121-.725.061-.03.544.3,1,1.027,1.42l3.233,3.082a3.343,3.343,0,0,0,3.988.846,2.728,2.728,0,0,0,1.42-1.3,2.617,2.617,0,0,0,.06-2.085,3.652,3.652,0,0,0-.6-1.179l-.363-.513.816.272a4.726,4.726,0,0,0,1.42.181,2.336,2.336,0,0,0,1.3-.574,2.079,2.079,0,0,0,.695-1.118A2.819,2.819,0,0,0,1495.456,139.079Zm-6.134,5.983q-.725.589-2.266-.181l-1.239-1.178q-.589-.5,0-1.179l2.236-2.417a5.567,5.567,0,0,1,2.145,2.236C1490.8,143.37,1490.5,144.276,1489.323,145.061Zm3.233-4.411a1.854,1.854,0,0,1-1.541.182,4.545,4.545,0,0,1-2.145-1.722,21.84,21.84,0,0,1,2.327-2.417c.211-.272.483-.272.816-.091a3.977,3.977,0,0,1,1.511,2.055C1493.734,139.351,1493.4,140.016,1492.556,140.65Zm17.827,44.99c.06-.03.151-.06.212-.09a7,7,0,0,1,1.148-.121.547.547,0,0,1,.151.906l-1.057.967a2.571,2.571,0,0,0-.846,1.36,2.489,2.489,0,0,0,.393,2.266c.725.665,1.329.906,1.813.665a2.213,2.213,0,0,0,.846-.695,2.969,2.969,0,0,0,.514-1.088l.876-2.9a3.027,3.027,0,0,1,1.178-1.6,2.781,2.781,0,0,1,2.931-.151,3.768,3.768,0,0,1,2.025,3.444,15.789,15.789,0,0,0,.06,1.783c.363.363.393.695.061,1.027a7.464,7.464,0,0,1-2.055,1c-.363.03-.574-.091-.6-.3s.151-.513.514-.936a3.028,3.028,0,0,0,.816-1.3c.212-1.481-.121-2.417-1.027-2.78-1.178-.423-1.994.3-2.478,2.115l-.6,2.236a2.674,2.674,0,0,1-1.964,2.085,2.7,2.7,0,0,1-2.75-.362,3.452,3.452,0,0,1-1.39-1.753,7.7,7.7,0,0,1-.423-3.746,2.209,2.209,0,0,1,.6-1.511,3.823,3.823,0,0,1,1.057-.514m2.266-23.507a.354.354,0,0,1,.151.332c.695,1.843,1.178,3.051,1.42,3.686.544,1.36,1.088,2.538,1.6,3.535a.73.73,0,0,1,.121.453.689.689,0,0,1-.242.423,5.361,5.361,0,0,1-2.206,1.148.471.471,0,0,1-.453-.483,5.046,5.046,0,0,1,.755-.936,1.323,1.323,0,0,0,.423-.725,2.585,2.585,0,0,0-.393-1.6c-.121-.242-.363-.3-.725-.151-1.057.423-2.055.816-3.082,1.239-.363.181-.725.332-1.088.483-1.209.513-2.417,1.088-3.626,1.631l-.06.967c-.06.121-.121.241-.212.272a.158.158,0,0,1-.242-.031,4.12,4.12,0,0,1-1.057-1.511,8.47,8.47,0,0,1-.635-1.994c.091-.393.272-.513.544-.393l.665.483a.511.511,0,0,0,.514,0l7.554-3.112c.242-.211.332-.423.242-.6a3.032,3.032,0,0,0-.484-1.088,1.815,1.815,0,0,0-1.783-.544c-.635-.121-.846-.392-.665-.816a5.59,5.59,0,0,1,2.538-.786.639.639,0,0,1,.423.121m-148.113-17.1a.983.983,0,0,1,.332-.363.655.655,0,0,1,.483,0A5.012,5.012,0,0,1,1367.5,146m-2.961-.967a33.371,33.371,0,0,1-2.236,3.172c-.393.544-1.208,1.571-2.447,3.112a.385.385,0,0,0-.212.272.853.853,0,0,0,.121.454,5.758,5.758,0,0,0,1.994,1.783c.453-.061.574-.393.332-1a1.789,1.789,0,0,1-.423-1.783,3.192,3.192,0,0,1,.665-1c.151-.182.363-.212.665-.091l6.557,4.925a.736.736,0,0,1,.272.454l-.091.816q.045.453.635.272a7.521,7.521,0,0,0,2.145-3.233q-.045-.363-.453-.272l-.876.423c-2.3-1.571-4.593-3.233-6.859-5.016q-.453-.363-.272-.725a2.864,2.864,0,0,1,1.178-1.148,1.4,1.4,0,0,1,.876,0,5.57,5.57,0,0,0,1.209.181.53.53,0,0,0,.181-.634m11.331-14.987a3.824,3.824,0,0,0-2.055,3.414,2.871,2.871,0,0,0,3.5,2.78l2.961-.635a3.213,3.213,0,0,1,1.209-.031,2.434,2.434,0,0,1,1.027.393q.634.5.272,1.9a2.6,2.6,0,0,1-1.783,1.45,2.393,2.393,0,0,1-1.632-.121l-1.329-.423c-.453-.121-.665.06-.725.544a3.77,3.77,0,0,0,1.783,1.783,2.371,2.371,0,0,0,1.632-.182,7.854,7.854,0,0,0,3.052-2.175,3.378,3.378,0,0,0,.906-2.054,2.777,2.777,0,0,0-1-2.6,2.72,2.72,0,0,0-2.78-.725l-2.266.544c-1.813.454-2.84.061-3.052-1.178-.091-.967.574-1.692,1.994-2.236a3.366,3.366,0,0,1,1.511.091,1.51,1.51,0,0,0,1.057,0c.181-.121.181-.363,0-.695a6.91,6.91,0,0,0-1.873-1.3c-.453-.121-.725.06-.876.544a10.857,10.857,0,0,1-1.541.906m-20.516,22.994-1.752,3.082c.03.514.242.725.634.574l.544-.423a.59.59,0,0,1,.453,0,54.04,54.04,0,0,1,7.131,4.23.533.533,0,0,1,.272.393v.6a.476.476,0,0,0,.212.453.515.515,0,0,0,.423,0,12.339,12.339,0,0,0,1.843-2.961c.06-.392,0-.635-.181-.755-.212-.121-.453,0-.786.332a.433.433,0,0,1-.3.121c-.03,0-.151-.06-.332-.121-2.75-1.45-5.106-2.84-7.1-4.139a1.211,1.211,0,0,1-.272-1.148c-.121-.453-.363-.544-.786-.241m-6.345,18.189a4.464,4.464,0,0,0-2.176-.181c-.242.03-.332.362-.3.967l-1.934,6.556q-.045,1.224.816.635l.363-.363a.471.471,0,0,1,.423-.181,49.428,49.428,0,0,1,8.007,2.538.346.346,0,0,1,.272.332.735.735,0,0,0,.181.635c.242.3.483.332.665.03a6.76,6.76,0,0,0,.574-1.45c.453-1.269.967-3.142,1.632-5.589a1.225,1.225,0,0,1,.363-.544c.151-.151.121-.332-.091-.514a4.439,4.439,0,0,0-2.206-1.3c-.695-.121-.967-.03-.846.3l.272.362.725.755a1.279,1.279,0,0,1,.453,1.209,19.942,19.942,0,0,1-1,3.142.706.706,0,0,1-.635.272l-2.961-.725c-.332-.151-.483-.3-.453-.423l.544-2.085a.641.641,0,0,1,.725-.453h1.148a.3.3,0,0,0,.3-.182c.06-.121.06-.211-.03-.272a9.529,9.529,0,0,0-4.26-1.36.228.228,0,0,0-.272.121.311.311,0,0,0-.03.363c.03.151.211.272.514.423a2.119,2.119,0,0,1,.725.453.789.789,0,0,1,.091.816l-.544,1.722c-.06.272-.242.363-.514.272a16.143,16.143,0,0,1-2.447-.906c-.453-.121-.6-.454-.514-1l.786-2.689a1.588,1.588,0,0,1,1-.725,1.287,1.287,0,0,0,.816-.363c.121-.181.06-.392-.181-.6m13.6-8.249a.609.609,0,0,0-.484-.453.283.283,0,0,0-.363.272.8.8,0,0,1-.695.695,5.536,5.536,0,0,1-1.9-.242,6.419,6.419,0,0,0-1.027-.151,2.588,2.588,0,0,0-.967.121,1.93,1.93,0,0,0-.665.332,1.545,1.545,0,0,0-.363.544c-.121.121-.181.121-.212-.091a3.451,3.451,0,0,0-.393-2.175,2.8,2.8,0,0,0-3.2-1.239,3.249,3.249,0,0,0-1.631,1.3,46.384,46.384,0,0,0-2.629,5.65c0,.634.3.755.846.362l.272-.272a.451.451,0,0,1,.544,0,37.037,37.037,0,0,1,7.372,3.6.694.694,0,0,1,.363.453v.725c.03.121.151.181.3.212a.486.486,0,0,0,.332-.091,4.769,4.769,0,0,0,1.057-1.571,7.547,7.547,0,0,0,.574-1.994.538.538,0,0,0-.574-.241l-.544.453a.45.45,0,0,1-.514.06c-1.027-.423-2.024-.846-2.991-1.329a.416.416,0,0,1-.272-.544,3.456,3.456,0,0,1,1.541-1.964,3.673,3.673,0,0,1,2.085-.091c.725.091,1.148.151,1.209.151a5.878,5.878,0,0,0,1.239.031,2.022,2.022,0,0,0,1.329-.906A2.314,2.314,0,0,0,1365.563,163.946Zm-7.916,2.3a7.934,7.934,0,0,1-.937,1.9l-3.142-1.631c-.574-.212-.483-.906.3-1.994a2.211,2.211,0,0,1,1.178-.846,2.6,2.6,0,0,1,1.36-.03,1.614,1.614,0,0,1,1.027.876A2.506,2.506,0,0,1,1357.646,166.242Zm24.142-23.447a.482.482,0,0,0-.544-.091,3.653,3.653,0,0,1-.453.242,1.552,1.552,0,0,1-.846.03c-1.45-.544-3.444-1.329-5.982-2.327a21.856,21.856,0,0,0-4.109-1.45,1.079,1.079,0,0,0-.6.453c-.181.272-.181.453,0,.6.121.151.876,1.783,2.236,4.8q1,2.312,1.994,4.532a13.126,13.126,0,0,1-.272,1.632c.091.3.272.393.634.272.453-.362.876-.755,1.3-1.148v-.03a1.715,1.715,0,0,0,.212-.242,8.71,8.71,0,0,0,.906-1.178.47.47,0,0,0-.181-.423.738.738,0,0,0-.725.091v.031a1.657,1.657,0,0,1-.514.151.8.8,0,0,1-.363-.09.416.416,0,0,1-.121-.091,2.188,2.188,0,0,1-.695-1.3.551.551,0,0,1,.181-.635,35.229,35.229,0,0,1,2.81-2.81,4.218,4.218,0,0,1,1.9.876.433.433,0,0,1,.091.454,2.279,2.279,0,0,0-.3.664q-.091.589.635.454a12.542,12.542,0,0,0,2.84-2.961A.5.5,0,0,0,1381.788,142.8Zm-8.823,2.961-1.692-3.928q-.045-.227.181-.181l3.958,1.692Zm-15.712,44.114q.453-.227,0-.544-6.073-3.716-9.064-5.62a1.241,1.241,0,0,1-.544-.937c-.272-.664-.574-.725-.906-.151a11.887,11.887,0,0,0-.453,2.961c.03.3.121.514.332.514.181.03.363-.06.574-.333a2.083,2.083,0,0,1,.453-.513.918.918,0,0,1,.695,0l.121.06a36.507,36.507,0,0,1,5.2,3.142.579.579,0,0,1,.272.272c0,.091-.06.151-.211.182a29.965,29.965,0,0,1-6.708,1.511.531.531,0,0,1-.363-.3s-.03-.151-.091-.423c-.06-.332-.212-.483-.423-.483-.211-.03-.363.151-.514.483a8.411,8.411,0,0,0-.363,1.722c-.03.3-.06.906-.121,1.783.06.332.212.484.393.484.212-.03.363-.182.483-.484a1.733,1.733,0,0,1,1-.725c3.686-.755,7.1-1.632,10.243-2.6M1345.59,209.9c.06.242.272.393.635.484q6.662-.408,8.7-1.178c.061-.061.121-.151.181-.212a.964.964,0,0,0,.091-.423c.151-.484.483-.514.906-.182a50.266,50.266,0,0,1,.967,7.191,3.1,3.1,0,0,1,.332,1.118,2.991,2.991,0,0,1-2.3.816h-.03c-.393-.151-.514-.393-.332-.7a2.467,2.467,0,0,0,.363-.242,2.229,2.229,0,0,0,.786-1.329,18.137,18.137,0,0,0-.332-2.9,1.094,1.094,0,0,0-.453-.7.157.157,0,0,0-.121-.06l-3.354.3.332,2.508a.571.571,0,0,0,.6.423,2.293,2.293,0,0,1,1.269.212c.151.241.06.453-.181.635a5.4,5.4,0,0,1-1.843.483,8.655,8.655,0,0,1-2.478.061c-.332-.061-.423-.272-.242-.635l1.057-.544c.393-.182.574-.393.514-.635l-.151-2.055q-.136-.408-.453-.272l-3.6.544a.419.419,0,0,0-.363.423c-.121.725-.453.937-.967.635a11.464,11.464,0,0,1-.544-3.686q.272-.952,1-.091m13.778,16.316a2.934,2.934,0,0,1-1.39,1.178,2.846,2.846,0,0,1-1.873.031,3.143,3.143,0,0,1-1-.514,3.8,3.8,0,0,1-.816-.876c-.121-.121-.211-.091-.181.091a1.755,1.755,0,0,1,.06.665,1.719,1.719,0,0,1-.272.665,2.707,2.707,0,0,1-.665.785,7.3,7.3,0,0,1-.876.574,4.566,4.566,0,0,0-1.571,1.088.823.823,0,0,0-.091,1.027.252.252,0,0,1-.121.423c-.151.151-.393.121-.635,0a2.488,2.488,0,0,1-.846-1.481,2.131,2.131,0,0,1,.423-1.6,6.716,6.716,0,0,1,.937-.786c.091-.06.423-.3,1.057-.695a4.116,4.116,0,0,0,1.511-1.511,3.359,3.359,0,0,0-.151-2.508.411.411,0,0,0-.574-.242c-1.057.3-2.115.635-3.2,1a.535.535,0,0,0-.332.423l-.091.7a.531.531,0,0,1-.6.181,6.153,6.153,0,0,1-.906-1.9,4.29,4.29,0,0,1-.272-1.9c0-.091.06-.181.211-.272a.321.321,0,0,1,.393-.061l.484.544a.619.619,0,0,0,.574.121,40.932,40.932,0,0,0,6.557-1.692c.514-.181,1-.363,1.481-.574a.4.4,0,0,0,.393-.362l.03-.393c.151-.665.453-.755.876-.3a46.445,46.445,0,0,1,1.843,6.1A3.453,3.453,0,0,1,1359.368,226.219Zm-.906-3.233c-.151-1.329-.544-1.933-1.148-1.722l-3.475.877a7.02,7.02,0,0,0,.574,2.085,3.261,3.261,0,0,0,.695.846,2.014,2.014,0,0,0,1.994.3,2.133,2.133,0,0,0,1-.937A2.424,2.424,0,0,0,1358.462,222.986Zm1.3,6.013a.532.532,0,0,1-.212.453c-1.722.876-3.233,1.6-4.442,2.145a24.338,24.338,0,0,1-3.414,1.39.473.473,0,0,1-.453-.091.8.8,0,0,0-.574-.362c-.393-.091-.574.06-.544.423a11.045,11.045,0,0,0,.544,1.511c.574,1.269,1.42,3.082,2.6,5.378a1.4,1.4,0,0,1,.091.665c0,.241.151.362.423.362a3.974,3.974,0,0,0,1.329-.06,5.334,5.334,0,0,0,1.269-.454c.6-.392.755-.665.423-.815l-.453-.091-1.058-.06a.449.449,0,0,0-.181-.03,1.19,1.19,0,0,1-1-.635,20.355,20.355,0,0,1-1.39-3.082.707.707,0,0,1,.3-.635l2.75-1.481c.363-.091.574-.091.665.03l1,1.964a.716.716,0,0,1-.242.846l-.906.786a.341.341,0,0,0-.091.332c.06.151.121.212.212.181a9.93,9.93,0,0,0,3.6-1.39c.181-.151.393-.3.6-.454a.26.26,0,0,0,.121-.3.323.323,0,0,0-.211-.272c-.06-.06-.151-.06-.272-.06a1.931,1.931,0,0,0-.453.09,2.02,2.02,0,0,1-.846.121.734.734,0,0,1-.635-.544l-.755-1.692c-.121-.242-.06-.423.242-.574a17.368,17.368,0,0,1,2.478-.967.785.785,0,0,1,.876.121,1.682,1.682,0,0,0,.212.272l1.209,2.629a1.522,1.522,0,0,1-.272,1.209,1.328,1.328,0,0,0-.363.846c.03.242.212.363.574.363a5.209,5.209,0,0,0,1.783-1.329c.151-.212,0-.544-.453-.967l-2.991-6.375c-.544-.635-.906-.6-1.058.09l-.03.514m4.865,9.608a.419.419,0,0,1-.061.332c0,.03-.091.091-.242.242a80.341,80.341,0,0,1-7.191,4.442,1.164,1.164,0,0,1-1.178-.272c-.453-.121-.665.091-.574.6l1.934,3.051c.483.212.755.121.846-.3l-.151-.695a.561.561,0,0,1,.211-.393,52.656,52.656,0,0,1,7.312-4.472.644.644,0,0,1,.484-.061l.544.3a.455.455,0,0,0,.514,0,.506.506,0,0,0,.211-.393,12.931,12.931,0,0,0-1.813-3.082c-.332-.242-.574-.3-.755-.182-.211.121-.242.423-.091.876m4.26,4.774q-1-.77-1,.272l.06.544a.45.45,0,0,1-.121.483,53.322,53.322,0,0,1-6.889,5.137q-.272.181-.453,0a.9.9,0,0,0-.635-.212q-.634.045-.453.544a11.731,11.731,0,0,0,.876,1.36c.816,1.118,2.055,2.689,3.686,4.683a2.423,2.423,0,0,1,.242.635c.06.242.212.332.484.272a4.689,4.689,0,0,0,2.417-1.088c.514-.483.6-.786.242-.876h-.453l-1.088.181a1.3,1.3,0,0,1-1.269-.393,23.123,23.123,0,0,1-2.024-2.689.694.694,0,0,1,.151-.695l2.387-2.055c.3-.181.544-.212.634-.091l1.42,1.692a.679.679,0,0,1-.06.846l-.725,1a.325.325,0,0,0,0,.332c.06.151.151.182.211.151a9.969,9.969,0,0,0,3.233-2.175c.151-.181.332-.362.483-.544a.307.307,0,0,0,.091-.332.629.629,0,0,0-.3-.241.331.331,0,0,0-.242,0,1.1,1.1,0,0,0-.423.212,2.594,2.594,0,0,1-.846.3.793.793,0,0,1-.725-.423l-1.088-1.451c-.181-.242-.151-.423.121-.6a14.382,14.382,0,0,1,2.206-1.511.685.685,0,0,1,.846-.061,1.677,1.677,0,0,1,.272.212l1.783,2.3a1.66,1.66,0,0,1,0,1.269,1.3,1.3,0,0,0-.181.876c.06.242.272.332.635.242a5.544,5.544,0,0,0,1.45-1.692c.091-.242-.121-.514-.634-.846l-4.321-5.56m140.983-35.956c.453-.362.755-.3.906.151a.769.769,0,0,0,.363.816c3.263.665,6.587,1.209,9.971,1.6a.265.265,0,0,1,.212.182,2.056,2.056,0,0,1-.03.362c-.06.332-1.209,1.209-3.505,2.659-1.42.876-3.716,2.236-6.859,4.049l7.191,1.028c.635-.121.937-.332.937-.635.423-.514.755-.393.967.362a5.7,5.7,0,0,1-.272,2.236c-.151.393-.332.574-.574.574-.212-.03-.363-.181-.484-.483a1.618,1.618,0,0,0-.181-.484.429.429,0,0,0-.272-.242,76.787,76.787,0,0,0-8.551-1.239c-.212-.061-.363.09-.423.363q-.725,1-1.088,0a6.552,6.552,0,0,1,.272-2.417c3.444-1.874,6.557-3.747,9.336-5.59a38.587,38.587,0,0,0-6.647-.907.665.665,0,0,0-.634.181l-.363.665c-.514.061-.725-.06-.695-.393a6.043,6.043,0,0,1,.423-2.84m-2.175,12.418a12.272,12.272,0,0,0-1,3.475c.06.392.181.6.393.665.242.091.453-.091.695-.544a.355.355,0,0,1,.3-.181,2.642,2.642,0,0,1,.332.03,83.074,83.074,0,0,1,8.279,2.145.571.571,0,0,1,.332.363c.121.3.212.514.272.7.091.212.181.3.3.3a.673.673,0,0,0,.514-.3c.242-.635.393-1.239.574-1.873.121-.514.212-1.088.3-1.662-.181-.544-.453-.695-.725-.423l-.484.514a1.161,1.161,0,0,0-.151.182.3.3,0,0,1-.242.03,58.719,58.719,0,0,1-8.37-2.236.639.639,0,0,1-.393-.3l-.151-.6a.534.534,0,0,0-.363-.393.613.613,0,0,0-.423.121m-2.78,8.1a10.9,10.9,0,0,0-1.39,3.6.854.854,0,0,0,.272.3.612.612,0,0,0,.332,0c.453-.544.786-.725,1-.574.272.091.514.151.755.242a65.524,65.524,0,0,1,7.372,2.87.455.455,0,0,1,.3.272,1.326,1.326,0,0,1,.06.453c.06.423.181.695.453.755.242.091.423,0,.514-.3l2.387-6.043a1.943,1.943,0,0,1,.453-.755c.242-.212.3-.423.181-.6a6.181,6.181,0,0,0-2.689-1.722q-.725,0-.453.635l1,1.36a3.212,3.212,0,0,1,.181,1.118,6.825,6.825,0,0,1-1.118,2.387.821.821,0,0,1-.846.151,53.573,53.573,0,0,1-7.886-3.233c-.121-.031-.181-.182-.181-.423a1.272,1.272,0,0,0-.06-.574m-10.575,20.184,1.783-2.327a1.589,1.589,0,0,1,1.239-.332,1.319,1.319,0,0,0,.937-.061c.212-.121.242-.363.06-.665a4.5,4.5,0,0,0-2.055-1q-.362-.045-.634.816l-4.381,5.741q-.5,1.178.544.906l.483-.212a.407.407,0,0,1,.514,0,54.748,54.748,0,0,1,6.889,5.439.429.429,0,0,1,.121.483.856.856,0,0,0-.061.665c.121.393.332.484.665.272a8.53,8.53,0,0,0,1.088-1.209c.906-1.088,2.145-2.689,3.686-4.834a1.434,1.434,0,0,1,.544-.393c.242-.121.272-.3.121-.574a4.71,4.71,0,0,0-1.662-2.115c-.635-.362-.967-.362-.937,0l.121.453.423,1.028a1.279,1.279,0,0,1-.03,1.359,17.807,17.807,0,0,1-2.145,2.689.749.749,0,0,1-.725.031l-2.629-1.813c-.242-.272-.332-.484-.272-.6l1.329-1.813a.665.665,0,0,1,.846-.181l1.148.423a.33.33,0,0,0,.363-.061c.091-.121.121-.181.091-.272a10.759,10.759,0,0,0-2.991-2.568,2.837,2.837,0,0,0-.665-.363.324.324,0,0,0-.333,0,.472.472,0,0,0-.181.363.933.933,0,0,0,.061.241,1.6,1.6,0,0,0,.3.363,3.079,3.079,0,0,1,.544.725.78.78,0,0,1-.211.816l-1.178,1.48a.382.382,0,0,1-.635.06,17.637,17.637,0,0,1-2.024-1.783.746.746,0,0,1-.3-.846,1.617,1.617,0,0,1,.151-.332M1513.132,238a2.546,2.546,0,0,1-.453,1.632,2.04,2.04,0,0,1-1.42.846,4.674,4.674,0,0,1-1.239-.091c-.091,0-.483-.091-1.209-.212a3.907,3.907,0,0,0-2.145-.031,3.655,3.655,0,0,0-1.662,1.9.4.4,0,0,0,.242.574,19.193,19.193,0,0,0,1.752.907c.393.212.816.423,1.239.6a.408.408,0,0,0,.514-.03l.544-.453a.548.548,0,0,1,.574.3,7.375,7.375,0,0,1-.665,1.994,4.889,4.889,0,0,1-1.148,1.541.647.647,0,0,1-.363.09c-.151-.06-.272-.121-.3-.272l.03-.725a.58.58,0,0,0-.332-.453c-.7-.484-1.39-.967-2.115-1.42a44.224,44.224,0,0,0-5.2-2.659.453.453,0,0,0-.544,0l-.3.272c-.574.332-.846.212-.816-.423a43.281,43.281,0,0,1,2.931-5.53c.03-.03.03-.06.06-.09a3.021,3.021,0,0,1,1.692-1.209,2.584,2.584,0,0,1,.665-.121,2.534,2.534,0,0,1,1.148.242,2.778,2.778,0,0,1,1.36,1.269,3.552,3.552,0,0,1,.3,2.266c.03.181.091.212.212.091a1.624,1.624,0,0,1,.423-.544,1.515,1.515,0,0,1,.665-.272,2.731,2.731,0,0,1,1-.091c.242.03.574.091,1.027.181a4.983,4.983,0,0,0,1.934.363.836.836,0,0,0,.755-.665.294.294,0,0,1,.363-.272A.7.7,0,0,1,1513.132,238Zm-8.309.181a1.58,1.58,0,0,0-1-.967,2.7,2.7,0,0,0-1.39-.03,2.258,2.258,0,0,0-1.239.786c-.846,1.088-1,1.753-.423,2.024l3.112,1.843a8.58,8.58,0,0,0,1.057-1.9A2.594,2.594,0,0,0,1504.823,238.184Zm-6.829,21.755c-.03.181-.06.423-.091.635a3.6,3.6,0,0,1-1.3,1.964l-3.414,3.2c-.514.695-1.027,1.027-1.571.967-.212-.091-.212-.363-.03-.786a.905.905,0,0,0-.121-1c-1.571-1.782-3.565-3.807-5.952-6.1a.8.8,0,0,0-.786-.031,1.145,1.145,0,0,1-.574.121c-.272,0-.393-.212-.363-.6a.329.329,0,0,1,.03-.151l4.593-4.472a2.3,2.3,0,0,1,.755-.6,3.32,3.32,0,0,1,.755-.212,5.824,5.824,0,0,1,.725-.03,3.689,3.689,0,0,1,.786.182,2.442,2.442,0,0,1,1.118.785,2.779,2.779,0,0,1,.514,1.42,4.347,4.347,0,0,1-.3,1.481l-.332.846.574-.363a3.986,3.986,0,0,1,1.3-.544,2.626,2.626,0,0,1,2.145.181,3.048,3.048,0,0,1,1.3,1.571A3.917,3.917,0,0,1,1497.994,259.939Zm-6.5-2.3a1.861,1.861,0,0,0-.091-1.6c-.6-.967-1.3-1.36-2.024-1.178a4.183,4.183,0,0,0-2.266,1.481c-.212.332-.212.634.061.846a21.516,21.516,0,0,0,2.387,2.6A5.129,5.129,0,0,0,1491.5,257.642Zm4.291,2.055c-.725-1.3-1.632-1.662-2.75-1.118a5.794,5.794,0,0,0-2.508,2.115l2.417,2.508c.453.423.846.453,1.209.091l1.3-1.239C1496.061,261.027,1496.181,260.241,1495.789,259.7Zm-60.4,28.764a.3.3,0,0,0-.423-.241.811.811,0,0,1-.937-.393,5.265,5.265,0,0,1-.574-1.9,7.716,7.716,0,0,0-.3-1.028,2.793,2.793,0,0,0-.514-.876,1.943,1.943,0,0,0-.574-.483,1.537,1.537,0,0,0-.665-.121c-.181-.06-.211-.121-.03-.212a6.009,6.009,0,0,0,1.088-.513,3.482,3.482,0,0,0,.816-.816,2.8,2.8,0,0,0,.544-1.813,2.616,2.616,0,0,0-.725-1.722,3.089,3.089,0,0,0-1.873-1,51.01,51.01,0,0,0-6.5-.151c-.6.3-.574.6,0,.967l.393.151a.452.452,0,0,1,.211.514c.03.544.06,1.058.091,1.6a37.694,37.694,0,0,1-.423,6.889.61.61,0,0,1-.272.544l-.665.3c-.121.091-.121.212-.06.393a.335.335,0,0,0,.211.272,4.716,4.716,0,0,0,1.934.332,8.451,8.451,0,0,0,2.115-.272.54.54,0,0,0,0-.664l-.635-.332a.409.409,0,0,1-.3-.453c-.03-1.148-.03-2.266,0-3.384a.414.414,0,0,1,.423-.483,3.374,3.374,0,0,1,2.508.635,4,4,0,0,1,.967,1.934c.181.725.333,1.148.363,1.239a5.972,5.972,0,0,0,.483,1.148,2.1,2.1,0,0,0,1.42.906,2.711,2.711,0,0,0,1.692-.332A.689.689,0,0,0,1435.389,288.461Zm-4.2-6.858a1.775,1.775,0,0,1-.544.513,2.991,2.991,0,0,1-1,.393,6.853,6.853,0,0,1-2.206-.091l.242-3.656c-.03-.635.665-.816,2.024-.544a2.345,2.345,0,0,1,1.3.786,2.756,2.756,0,0,1,.6,1.269A1.647,1.647,0,0,1,1431.189,281.6Zm6.647,1.39a3.112,3.112,0,0,1-1.571-1.3,2.854,2.854,0,0,1,.06-3.052,3.883,3.883,0,0,1,3.656-1.843c1.058.061,1.662.061,1.813.061.423-.363.755-.363,1.057-.03a6.31,6.31,0,0,1,.937,2.176c-.03.392-.121.6-.363.6a1.5,1.5,0,0,1-.906-.574,2.829,2.829,0,0,0-1.3-.907c-1.511-.332-2.508-.03-2.961.877-.483,1.178.181,2.085,2.024,2.689l2.266.755a2.757,2.757,0,0,1,2.055,2.145,2.88,2.88,0,0,1-.574,2.81,3.426,3.426,0,0,1-1.873,1.33,8.425,8.425,0,0,1-3.868.212,2.482,2.482,0,0,1-1.511-.725,3.892,3.892,0,0,1-.6-2.538c.3-.392.6-.423.937-.09l.906,1.118a2.614,2.614,0,0,0,1.39.967,2.643,2.643,0,0,0,2.357-.272c.695-.695.967-1.3.786-1.813a2.363,2.363,0,0,0-.695-.907,2.992,2.992,0,0,0-1.057-.635l-2.961-1.057m7.01-6.073c-.06-.212.091-.423.423-.635a12.374,12.374,0,0,1,3.535-.6.474.474,0,0,1,.3.332.5.5,0,0,1-.181.453l-.484.423a.648.648,0,0,0-.121.453,60.073,60.073,0,0,0,1.632,8.43.66.66,0,0,0,.272.3l.695.121c.393.211.363.514,0,.876l-3.535.755c-.514-.091-.635-.362-.363-.755a1.2,1.2,0,0,0,.695-1c-.363-2.417-.906-5.167-1.662-8.279a2.547,2.547,0,0,0-.121-.3.332.332,0,0,0-.3-.181c-.483-.03-.755-.151-.786-.393m9.034-1.239a2.835,2.835,0,0,0-1.209.332,1.97,1.97,0,0,0-.755,1.752c-.181.635-.483.846-.906.6a5.79,5.79,0,0,1-.484-2.689.507.507,0,0,1,.181-.423.3.3,0,0,1,.332-.121c1.964-.484,3.293-.816,3.958-1q2.175-.589,3.807-1.178a.814.814,0,0,1,.483-.091.692.692,0,0,1,.393.3,5,5,0,0,1,.906,2.417.507.507,0,0,1-.544.393,5.824,5.824,0,0,1-.876-.877,1.244,1.244,0,0,0-.665-.544,3,3,0,0,0-1.692.212c-.272.091-.363.332-.242.755.272,1.088.574,2.176.876,3.263l.363,1.178c.363,1.329.786,2.629,1.209,3.9l.967.211a.466.466,0,0,1,.242.242.182.182,0,0,1-.03.241,4.877,4.877,0,0,1-1.692.876,9.038,9.038,0,0,1-2.115.423c-.393-.151-.483-.362-.332-.6l.574-.6a.664.664,0,0,0,.06-.544l-2.236-8.128c-.181-.272-.393-.393-.574-.3M1404,271.753c.876.211,1.48.363,1.783.453a6.869,6.869,0,0,1,1.662.695c.332.212.453.423.423.635-.061.212-.242.3-.6.332h-.453a.586.586,0,0,0-.363.3,30.2,30.2,0,0,0,.211,7.1c0,.151.061.212.151.212.091.03.212-.06.332-.212a36.613,36.613,0,0,0,4.2-4.623l.06-.121a.853.853,0,0,0,.151-.7,1.975,1.975,0,0,0-.423-.574c-.211-.242-.3-.453-.242-.635s.272-.272.6-.212a11.818,11.818,0,0,1,2.9,1.028c.484.423.363.725-.363.876a1.146,1.146,0,0,0-1,.362c-1.692,1.783-4.2,4.472-7.493,8.068-.272.272-.453.212-.574-.121-.363-3.354-.574-6.98-.6-10.847a1.6,1.6,0,0,0-.544-1.148c-.272-.181-.393-.392-.363-.574.03-.211.212-.332.544-.3m-.906-.09a.511.511,0,0,1,.06.453.49.49,0,0,1-.423.272l-.635.061a.666.666,0,0,0-.393.3,61.87,61.87,0,0,0-3.686,7.825.417.417,0,0,0,0,.272.634.634,0,0,1,.121.181l.423.544q.317.5-.544.635c-.544-.181-1.088-.393-1.571-.6a19.288,19.288,0,0,1-1.753-.907.664.664,0,0,1-.212-.544c.03-.121.151-.211.363-.241s.423-.091.725-.151a.593.593,0,0,0,.423-.242,77.082,77.082,0,0,0,3.6-7.765,3.049,3.049,0,0,0,.091-.332.335.335,0,0,0-.121-.332c-.393-.3-.514-.544-.423-.785.091-.182.332-.272.755-.242a11.771,11.771,0,0,1,3.2,1.6m-7.01-1.571a.582.582,0,0,0,.06-.665l-.453-.6c.121-.483.332-.635.635-.483a6.578,6.578,0,0,1,2.447,1.48c.151.544,0,.786-.453.786a.772.772,0,0,0-.906.03c-1.843,2.75-3.565,5.65-5.227,8.612-.091.121-.151.151-.242.121a1.968,1.968,0,0,1-.332-.151c-.272-.181-.665-1.571-1.118-4.23-.3-1.662-.695-4.29-1.209-7.886l-3.626,6.315c-.151.6-.061.967.242,1.057.3.6.06.876-.725.786a6.631,6.631,0,0,1-1.964-1.088c-.3-.272-.393-.544-.3-.755a.619.619,0,0,1,.6-.272,4.16,4.16,0,0,0,.514.031.41.41,0,0,0,.332-.181,68.912,68.912,0,0,0,4.381-7.463c.091-.151.03-.332-.181-.514-.453-.7-.332-1.028.393-1a6.709,6.709,0,0,1,2.145,1.148c.423,3.9,1,7.463,1.662,10.757a36.145,36.145,0,0,0,3.324-5.831m19.066,6.436c-.453-.514-.272-.816.544-.877l6.949,1.269q.906-.181,1,.182a4.661,4.661,0,0,1,.06,2.236c-.181.272-.423.362-.635.242a1.453,1.453,0,0,1-.453-.786,1.591,1.591,0,0,0-.816-.937l-2.84-.514h-.363a.773.773,0,0,0-.6.665,19.945,19.945,0,0,0-.634,2.568.381.381,0,0,0,.332.514l1.813.362a.733.733,0,0,0,.786-.181,1.7,1.7,0,0,0,.393-.786,1.817,1.817,0,0,1,.212-.423.513.513,0,0,1,.181-.181.379.379,0,0,1,.363,0c.121.06.151.121.181.272v.786a10.86,10.86,0,0,1-.937,3.717c-.06.091-.151.091-.272.06a.428.428,0,0,1-.242-.272l-.121-1.209a.649.649,0,0,0-.514-.665l-2.206-.332c-.151,0-.272.151-.393.513l-.393,3.082a.819.819,0,0,0,.332.635,22.31,22.31,0,0,0,3.324.665,1.269,1.269,0,0,0,1.088-.453.411.411,0,0,1,.091-.121l.695-.846.332-.3c.332-.182.453.091.423.815a7,7,0,0,1-.363,1.269,4.2,4.2,0,0,1-.725,1.118c-.151.242-.332.3-.544.151a1.689,1.689,0,0,0-.574-.3c-2.568-.393-4.532-.755-5.892-1.027a8.94,8.94,0,0,1-1.511-.423c-.332-.182-.363-.423-.06-.7a.761.761,0,0,1,.6-.272.42.42,0,0,0,.363-.3,27.585,27.585,0,0,0,.876-3.565c.242-1.329.514-2.961.786-4.865a.449.449,0,0,0-.212-.453l-.423-.332m-32.572-17.978c.242.453.151.725-.3.846-.453-.332-.846-.363-1.178-.061a37.955,37.955,0,0,0-3.082,3.173.929.929,0,0,1-.151.212,25.014,25.014,0,0,0-1.752,2.356,1.51,1.51,0,0,0-.181,1.118,3.454,3.454,0,0,0,1.118,1.9,3.574,3.574,0,0,0,1.934.967,3.318,3.318,0,0,0,1.783-.786c.06-.03.091-.091.121-.091l.061-.06a57.509,57.509,0,0,0,4.411-5.016.619.619,0,0,0,.151-.513,1.525,1.525,0,0,0-.332-.665c0-.181,0-.272.03-.3.06-.121.181-.181.393-.212a6.151,6.151,0,0,1,2.327,1.994c.121.332.091.544-.121.6a1.281,1.281,0,0,1-.272.091c-.06-.031-.242-.091-.514-.212a.649.649,0,0,0-.786.181l-4.17,4.744c-.181.151-.332.3-.514.453-.06.061-.121.091-.181.151a4.092,4.092,0,0,1-1.269.6,6.2,6.2,0,0,1-.937.151,2.844,2.844,0,0,1-1.057-.242,5.39,5.39,0,0,1-1.45-.7,6.106,6.106,0,0,1-1.239-1.118,5.676,5.676,0,0,1-1.178-2.387,4.169,4.169,0,0,1,.816-2.78l4.351-5.076c.181-.212.242-.393.151-.544a1.508,1.508,0,0,1-.332-.846.409.409,0,0,1,.514-.272,17,17,0,0,1,2.84,2.327m94.935,7.312a1.252,1.252,0,0,0-.816-.332,2.813,2.813,0,0,0-1.571.635c-.211.151-.242.423-.03.786.544.967,1.118,1.964,1.692,2.931.242.363.423.725.665,1.058q1.042,1.768,2.176,3.444l1-.061a.513.513,0,0,1,.3.182.225.225,0,0,1,0,.272,4.836,4.836,0,0,1-1.39,1.269,7.6,7.6,0,0,1-1.934.937c-.423-.061-.574-.211-.483-.514l.423-.725a.814.814,0,0,0-.091-.513l-4.26-7.282c-.272-.211-.484-.272-.665-.151a2.626,2.626,0,0,0-1.027.665,1.764,1.764,0,0,0-.3,1.873c-.03.665-.272.937-.725.786a5.455,5.455,0,0,1-1.178-2.447.863.863,0,0,1,.06-.484.4.4,0,0,1,.3-.181c1.783-.967,2.961-1.632,3.565-1.964,1.3-.755,2.448-1.48,3.384-2.145a.591.591,0,0,1,.906,0,5.231,5.231,0,0,1,1.511,2.085.575.575,0,0,1-.423.514,4.4,4.4,0,0,1-1.088-.635M1466,269.94a.158.158,0,0,1,.06-.121l1.329-.544h.121c.06,0,.091.061.121.091l.695,1.269a.092.092,0,0,1,0,.121c0,.03-.03.061-.06.091l-1.329.574h-.121c-.06-.03-.091-.06-.091-.091l-.725-1.269v-.121m-3.354,1.722.635,1.3v.09c-.03.061-.061.091-.091.091l-1.36.544h-.151l-.091-.091-.574-1.3c-.03-.03-.03-.06-.03-.121l.091-.091,1.36-.513a.136.136,0,0,1,.151,0c.03,0,.06.03.06.091m11.935,6.285a.478.478,0,0,0-.483-.3,3.181,3.181,0,0,1-.544.091,1.623,1.623,0,0,1-.816-.272c-1.209-1.027-2.84-2.478-4.925-4.321a23.319,23.319,0,0,0-3.445-2.84,1,1,0,0,0-.725.272c-.242.181-.332.363-.212.544.06.212.212,1.995.453,5.409.121,1.692.242,3.384.332,5.046a11.249,11.249,0,0,1-.816,1.451c-.03.332.121.483.514.483a11.151,11.151,0,0,0,1.662-.665v-.03c.091-.03.181-.091.272-.121.453-.272.876-.544,1.3-.846a.471.471,0,0,0-.03-.453c-.121-.151-.363-.211-.725-.151h0a1.059,1.059,0,0,1-.544-.03.856.856,0,0,1-.332-.241l-.091-.091a2.259,2.259,0,0,1-.181-1.511c-.06-.242.091-.393.363-.544,1.118-.574,2.357-1.148,3.686-1.722a4.517,4.517,0,0,1,1.481,1.541.359.359,0,0,1-.03.453,2.515,2.515,0,0,0-.514.544c-.211.333-.06.544.423.635a12.207,12.207,0,0,0,3.777-1.843C1474.578,278.249,1474.638,278.1,1474.578,277.947Zm-9.487-.242-.272-4.381a.158.158,0,0,1,.242-.121l3.2,3.021ZM1347.282,201.02l1.934-.725L1349,198.24l1.6,1.239,1.722-1.33-.363,2.145,1.964.725-1.934.846.272,2.115-1.662-1.329-1.692,1.239.332-2.055-1.964-.815M1516,199.479l-1.632-1.269.242,2.055-1.934.725,1.964.816-.363,2.055,1.722-1.239,1.662,1.329-.272-2.115,1.934-.846-1.994-.725.363-2.146-1.692,1.36" transform="translate(-649.505 132.25)"/>
  </g>
</svg>
